<svg width="69" height="69" viewBox="0 0 69 69" fill="none" xmlns="http://www.w3.org/2000/svg">
<mask id="path-1-outside-1_291_82" maskUnits="userSpaceOnUse" x="0" y="0" width="69" height="69" fill="black">
<rect fill="white" width="69" height="69"/>
<path d="M1 13C1 6.37258 6.37258 1 13 1H53C59.6274 1 65 6.37258 65 13V53C65 59.6274 59.6274 65 53 65H13C6.37258 65 1 59.6274 1 53V13Z"/>
</mask>
<path d="M1 13C1 6.37258 6.37258 1 13 1H53C59.6274 1 65 6.37258 65 13V53C65 59.6274 59.6274 65 53 65H13C6.37258 65 1 59.6274 1 53V13Z" fill="white"/>
<path d="M0 13C0 5.8203 5.8203 0 13 0H56C63.1797 0 69 5.8203 69 13H61C61 6.92487 57.4183 2 53 2H13C6.92487 2 2 6.92487 2 13H0ZM69 53C69 61.8366 61.8366 69 53 69H13C5.8203 69 0 63.1797 0 56L2 53C2 57.4183 6.92487 61 13 61H53C57.4183 61 61 57.4183 61 53H69ZM13 69C5.8203 69 0 63.1797 0 56V13C0 5.8203 5.8203 0 13 0V2C6.92487 2 2 6.92487 2 13V53C2 57.4183 6.92487 61 13 61V69ZM56 0C63.1797 0 69 5.8203 69 13V53C69 61.8366 61.8366 69 53 69V61C57.4183 61 61 57.4183 61 53V13C61 6.92487 57.4183 2 53 2L56 0Z" fill="#FDAC18" mask="url(#path-1-outside-1_291_82)"/>
<g clip-path="url(#clip0_291_82)">
<path d="M17.6829 32.8071C17.6822 35.5168 18.3902 38.1625 19.7364 40.4945L17.5542 48.4623L25.7082 46.3243C27.9635 47.552 30.4904 48.1953 33.0582 48.1955H33.0649C41.5418 48.1955 48.4422 41.2976 48.4458 32.8193C48.4474 28.7109 46.8489 24.8476 43.9447 21.9411C41.0409 19.0349 37.1791 17.4335 33.0643 17.4316C24.5865 17.4316 17.6866 24.3291 17.6831 32.8071" fill="url(#paint0_linear_291_82)"/>
<path d="M17.1338 32.802C17.1329 35.6091 17.8662 38.3495 19.2605 40.765L17 49.0184L25.4464 46.8037C27.7736 48.0726 30.3939 48.7416 33.0601 48.7426H33.067C41.848 48.7426 48.9963 41.5966 49 32.8147C49.0015 28.5588 47.3455 24.5566 44.3375 21.546C41.3291 18.5357 37.3291 16.8768 33.067 16.875C24.2845 16.875 17.1373 24.02 17.1338 32.802ZM22.1639 40.349L21.8485 39.8484C20.5227 37.7404 19.823 35.3044 19.824 32.803C19.8267 25.5036 25.7673 19.565 33.072 19.565C36.6095 19.5665 39.934 20.9455 42.4345 23.4475C44.9349 25.9497 46.3108 29.276 46.3099 32.8138C46.3066 40.1131 40.366 46.0525 33.067 46.0525H33.0618C30.6851 46.0513 28.3542 45.413 26.3215 44.2069L25.8378 43.92L20.8255 45.2341L22.1639 40.349Z" fill="url(#paint1_linear_291_82)"/>
<path d="M29.0847 26.1434C28.7864 25.4806 28.4726 25.4672 28.1889 25.4556C27.9567 25.4456 27.6912 25.4463 27.4259 25.4463C27.1604 25.4463 26.7291 25.5462 26.3644 25.9443C25.9994 26.3428 24.9709 27.3058 24.9709 29.2644C24.9709 31.2231 26.3976 33.1161 26.5964 33.3819C26.7956 33.6473 29.3506 37.7953 33.3971 39.3911C36.7601 40.7172 37.4444 40.4534 38.1743 40.3869C38.9043 40.3207 40.5298 39.4242 40.8614 38.4946C41.1933 37.5651 41.1933 36.7683 41.0938 36.6018C40.9943 36.4359 40.7288 36.3363 40.3307 36.1373C39.9326 35.9383 37.9752 34.9751 37.6103 34.8422C37.2453 34.7094 36.9799 34.6432 36.7144 35.0418C36.4489 35.4398 35.6866 36.3363 35.4542 36.6018C35.2221 36.8679 34.9897 36.9011 34.5917 36.7019C34.1933 36.5022 32.9112 36.0823 31.3901 34.7262C30.2066 33.6709 29.4076 32.3678 29.1753 31.9692C28.9431 31.5712 29.1504 31.3554 29.3501 31.1571C29.5289 30.9787 29.7483 30.6922 29.9476 30.4598C30.1461 30.2273 30.2123 30.0614 30.3451 29.7959C30.4779 29.5302 30.4114 29.2977 30.3121 29.0986C30.2123 28.8994 29.4387 26.9306 29.0847 26.1434Z" fill="white"/>
</g>
<defs>
<linearGradient id="paint0_linear_291_82" x1="1562.14" y1="3120.49" x2="1562.14" y2="17.4316" gradientUnits="userSpaceOnUse">
<stop stop-color="#FDAC18"/>
<stop offset="1" stop-color="#FDAC18"/>
</linearGradient>
<linearGradient id="paint1_linear_291_82" x1="1617" y1="3231.21" x2="1617" y2="16.875" gradientUnits="userSpaceOnUse">
<stop stop-color="#F9F9F9"/>
<stop offset="1" stop-color="white"/>
</linearGradient>
<clipPath id="clip0_291_82">
<rect width="32" height="32.25" fill="white" transform="translate(17 16.875)"/>
</clipPath>
</defs>
</svg>
