<svg width="69" height="69" viewBox="0 0 69 69" fill="none" xmlns="http://www.w3.org/2000/svg">
<mask id="path-1-outside-1_101_182" maskUnits="userSpaceOnUse" x="0" y="0" width="69" height="69" fill="black">
<rect fill="white" width="69" height="69"/>
<path d="M1 13C1 6.37258 6.37258 1 13 1H53C59.6274 1 65 6.37258 65 13V53C65 59.6274 59.6274 65 53 65H13C6.37258 65 1 59.6274 1 53V13Z"/>
</mask>
<path d="M1 13C1 6.37258 6.37258 1 13 1H53C59.6274 1 65 6.37258 65 13V53C65 59.6274 59.6274 65 53 65H13C6.37258 65 1 59.6274 1 53V13Z" fill="white"/>
<path d="M0 13C0 5.8203 5.8203 0 13 0H56C63.1797 0 69 5.8203 69 13H61C61 6.92487 57.4183 2 53 2H13C6.92487 2 2 6.92487 2 13H0ZM69 53C69 61.8366 61.8366 69 53 69H13C5.8203 69 0 63.1797 0 56L2 53C2 57.4183 6.92487 61 13 61H53C57.4183 61 61 57.4183 61 53H69ZM13 69C5.8203 69 0 63.1797 0 56V13C0 5.8203 5.8203 0 13 0V2C6.92487 2 2 6.92487 2 13V53C2 57.4183 6.92487 61 13 61V69ZM56 0C63.1797 0 69 5.8203 69 13V53C69 61.8366 61.8366 69 53 69V61C57.4183 61 61 57.4183 61 53V13C61 6.92487 57.4183 2 53 2L56 0Z" fill="#FDAC18" mask="url(#path-1-outside-1_101_182)"/>
<path d="M34.3708 19.668C35.8713 19.6704 36.6317 19.6784 37.2888 19.6979L37.5476 19.7064C37.8465 19.717 38.1415 19.7304 38.4971 19.747C39.9159 19.8126 40.8837 20.037 41.7337 20.367C42.6125 20.7059 43.3548 21.1637 44.0959 21.9048C44.8359 22.6459 45.2937 23.3904 45.6337 24.267C45.9625 25.1159 46.1871 26.0848 46.2537 27.5037C46.2696 27.8592 46.2824 28.1542 46.2929 28.4532L46.3013 28.712C46.3208 29.369 46.3297 30.1295 46.3325 31.63L46.3336 32.6243C46.3337 32.7457 46.3337 32.8711 46.3337 33.0004L46.3336 33.3765L46.3328 34.3708C46.3303 35.8713 46.3224 36.6317 46.3028 37.2888L46.2943 37.5476C46.2837 37.8465 46.2704 38.1415 46.2537 38.4971C46.1881 39.9159 45.9625 40.8837 45.6337 41.7337C45.2948 42.6125 44.8359 43.3548 44.0959 44.0959C43.3548 44.8359 42.6092 45.2937 41.7337 45.6337C40.8837 45.9625 39.9159 46.1871 38.4971 46.2537C38.1415 46.2696 37.8465 46.2824 37.5476 46.2929L37.2888 46.3013C36.6317 46.3208 35.8713 46.3297 34.3708 46.3325L33.3765 46.3336C33.2551 46.3337 33.1297 46.3337 33.0004 46.3337L32.6243 46.3336L31.63 46.3328C30.1295 46.3303 29.369 46.3224 28.712 46.3028L28.4532 46.2943C28.1542 46.2837 27.8592 46.2704 27.5037 46.2537C26.0848 46.1881 25.1181 45.9625 24.267 45.6337C23.3892 45.2948 22.6459 44.8359 21.9048 44.0959C21.1637 43.3548 20.707 42.6092 20.367 41.7337C20.037 40.8837 19.8137 39.9159 19.747 38.4971C19.7312 38.1415 19.7183 37.8465 19.7078 37.5476L19.6994 37.2888C19.6799 36.6317 19.671 35.8713 19.6681 34.3708L19.668 31.63C19.6704 30.1295 19.6784 29.369 19.6979 28.712L19.7064 28.4532C19.717 28.1542 19.7304 27.8592 19.747 27.5037C19.8126 26.0837 20.037 25.117 20.367 24.267C20.7059 23.3892 21.1637 22.6459 21.9048 21.9048C22.6459 21.1637 23.3904 20.707 24.267 20.367C25.117 20.037 26.0837 19.8137 27.5037 19.747C27.8592 19.7312 28.1542 19.7183 28.4532 19.7078L28.712 19.6994C29.369 19.6799 30.1295 19.671 31.63 19.6681L34.3708 19.668ZM33.0004 26.3337C29.3165 26.3337 26.3337 29.3197 26.3337 33.0004C26.3337 36.6843 29.3197 39.6671 33.0004 39.6671C36.6843 39.6671 39.6671 36.6809 39.6671 33.0004C39.6671 29.3165 36.6809 26.3337 33.0004 26.3337ZM33.0004 29.0004C35.2096 29.0004 37.0004 30.7905 37.0004 33.0004C37.0004 35.2096 35.2101 37.0004 33.0004 37.0004C30.7912 37.0004 29.0004 35.2101 29.0004 33.0004C29.0004 30.7912 30.7905 29.0004 33.0004 29.0004ZM40.0004 24.3337C39.0813 24.3337 38.3337 25.0802 38.3337 25.9992C38.3337 26.9182 39.0803 27.6659 40.0004 27.6659C40.9193 27.6659 41.6671 26.9194 41.6671 25.9992C41.6671 25.0802 40.9181 24.3325 40.0004 24.3337Z" fill="#FDAC18"/>
</svg>
