<svg width="80" height="80" viewBox="0 0 80 80" fill="none" xmlns="http://www.w3.org/2000/svg">
<rect width="80" height="80" rx="40" fill="white"/>
<path d="M45.1581 20.6516C44.9059 20.5287 44.6242 20.479 44.3451 20.5081C44.0661 20.5373 43.8008 20.6442 43.5794 20.8166L30.4844 30.9997H22C21.2044 30.9997 20.4413 31.3158 19.8787 31.8784C19.3161 32.441 19 33.204 19 33.9997V45.9997C19 46.7953 19.3161 47.5584 19.8787 48.121C20.4413 48.6836 21.2044 48.9997 22 48.9997H30.4844L43.5794 59.1828C43.801 59.3551 44.0665 59.4617 44.3456 59.4906C44.6248 59.5195 44.9065 59.4695 45.1587 59.3462C45.4109 59.223 45.6234 59.0314 45.7721 58.7934C45.9208 58.5554 45.9998 58.2804 46 57.9997V21.9997C46 21.7187 45.9211 21.4433 45.7723 21.205C45.6235 20.9666 45.4106 20.7749 45.1581 20.6516ZM22 33.9997H29.5V45.9997H22V33.9997ZM43 54.9322L32.5 46.7666V33.2328L43 25.0672V54.9322ZM53.125 35.0422C54.3315 36.4118 54.9971 38.1744 54.9971 39.9997C54.9971 41.8249 54.3315 43.5876 53.125 44.9572C52.86 45.2484 52.4911 45.4237 52.098 45.4453C51.7048 45.4669 51.319 45.3331 51.0236 45.0727C50.7283 44.8123 50.5472 44.4463 50.5194 44.0535C50.4916 43.6608 50.6193 43.2728 50.875 42.9734C51.5985 42.1518 51.9976 41.0945 51.9976 39.9997C51.9976 38.9049 51.5985 37.8476 50.875 37.0259C50.6193 36.7265 50.4916 36.3386 50.5194 35.9459C50.5472 35.5531 50.7283 35.1871 51.0236 34.9267C51.319 34.6663 51.7048 34.5325 52.098 34.5541C52.4911 34.5757 52.86 34.751 53.125 35.0422ZM62.5 39.9997C62.5022 43.6901 61.1421 47.2514 58.6806 50.0009C58.4134 50.2901 58.0433 50.4626 57.65 50.4812C57.2567 50.4998 56.8719 50.3631 56.5786 50.1005C56.2853 49.8379 56.1069 49.4706 56.082 49.0776C56.0572 48.6847 56.1877 48.2978 56.4456 48.0003C58.4133 45.8003 59.5011 42.9522 59.5011 40.0006C59.5011 37.049 58.4133 34.201 56.4456 32.0009C56.3106 31.8548 56.2059 31.6833 56.1378 31.4963C56.0697 31.3093 56.0395 31.1107 56.0489 30.9119C56.0583 30.7131 56.1072 30.5182 56.1927 30.3385C56.2781 30.1588 56.3985 29.9979 56.5468 29.8652C56.695 29.7325 56.8682 29.6306 57.0563 29.5655C57.2443 29.5004 57.4434 29.4733 57.642 29.4859C57.8406 29.4984 58.0347 29.5504 58.213 29.6387C58.3913 29.727 58.5503 29.85 58.6806 30.0003C61.1428 32.7487 62.5029 36.3097 62.5 39.9997Z" fill="black"/>
</svg>
