<svg width="69" height="69" viewBox="0 0 69 69" fill="none" xmlns="http://www.w3.org/2000/svg">
<mask id="path-1-outside-1_101_179" maskUnits="userSpaceOnUse" x="0" y="0" width="69" height="69" fill="black">
<rect fill="white" width="69" height="69"/>
<path d="M1 13C1 6.37258 6.37258 1 13 1H53C59.6274 1 65 6.37258 65 13V53C65 59.6274 59.6274 65 53 65H13C6.37258 65 1 59.6274 1 53V13Z"/>
</mask>
<path d="M1 13C1 6.37258 6.37258 1 13 1H53C59.6274 1 65 6.37258 65 13V53C65 59.6274 59.6274 65 53 65H13C6.37258 65 1 59.6274 1 53V13Z" fill="white"/>
<path d="M0 13C0 5.8203 5.8203 0 13 0H56C63.1797 0 69 5.8203 69 13H61C61 6.92487 57.4183 2 53 2H13C6.92487 2 2 6.92487 2 13H0ZM69 53C69 61.8366 61.8366 69 53 69H13C5.8203 69 0 63.1797 0 56L2 53C2 57.4183 6.92487 61 13 61H53C57.4183 61 61 57.4183 61 53H69ZM13 69C5.8203 69 0 63.1797 0 56V13C0 5.8203 5.8203 0 13 0V2C6.92487 2 2 6.92487 2 13V53C2 57.4183 6.92487 61 13 61V69ZM56 0C63.1797 0 69 5.8203 69 13V53C69 61.8366 61.8366 69 53 69V61C57.4183 61 61 57.4183 61 53V13C61 6.92487 57.4183 2 53 2L56 0Z" fill="#FDAC18" mask="url(#path-1-outside-1_101_179)"/>
<path d="M46.6167 24.5414C45.5988 24.9917 44.5193 25.2874 43.4141 25.4188C44.5785 24.7218 45.4499 23.6252 45.8657 22.3334C44.7716 22.9835 43.574 23.441 42.3251 23.6861C41.2708 22.5614 39.7973 21.924 38.2557 21.9258C35.1768 21.9258 32.6796 24.4221 32.6796 27.5024C32.6796 27.9394 32.7297 28.3632 32.8235 28.7721C28.1873 28.5387 24.0801 26.3201 21.329 22.9459C20.8337 23.7969 20.5734 24.7642 20.5747 25.7489C20.5747 27.6835 21.5595 29.391 23.0553 30.3907C22.1698 30.3627 21.3038 30.1235 20.5296 29.693C20.5287 29.7164 20.5287 29.7398 20.5287 29.762C20.5287 32.4645 22.4509 34.7189 25.0027 35.2308C24.5237 35.3604 24.0298 35.4259 23.5336 35.4255C23.1733 35.4255 22.8236 35.3923 22.4837 35.3271C23.1938 37.542 25.2518 39.1545 27.6928 39.1988C25.7175 40.7491 23.2783 41.5901 20.7672 41.5865C20.3228 41.5869 19.8788 41.5607 19.4375 41.5081C21.9867 43.1469 24.954 44.0167 27.9846 44.0135C38.2421 44.0135 43.8507 35.5167 43.8507 28.1481C43.8507 27.9071 43.8448 27.6651 43.8341 27.4266C44.9257 26.6379 45.868 25.6609 46.6167 24.5414Z" fill="#FDAC18"/>
</svg>
