<svg width="158" height="35" viewBox="0 0 158 35" fill="none" xmlns="http://www.w3.org/2000/svg">
<g clip-path="url(#clip0_178_117)">
<path d="M92.2744 1.25635C90.1164 2.73076 90.2738 7.26305 90.2738 7.26305H93.4033C93.4033 7.26305 96.2089 6.21989 96.2089 4.26012C96.2089 2.30034 92.2744 1.25718 92.2744 1.25718V1.25635Z" fill="white"/>
<path d="M75.4364 33.6267C74.4382 33.6167 73.6048 33.4519 73.0895 33.3495C65.7965 31.9067 60.3101 22.6356 58.4511 8.87643C58.2288 7.23302 59.416 5.7328 61.0677 5.58044C62.6171 5.43725 64.0107 6.53702 64.2189 8.07887C64.9198 13.2547 66.1928 17.7837 67.9444 21.2953C69.7652 24.9451 71.9938 27.1979 74.2184 27.6383C74.8736 27.7682 75.8635 27.9638 76.537 27.5867C77.6451 26.9673 77.8665 24.16 78.1221 20.9098C78.4818 16.3434 78.9288 10.6605 81.9417 4.54061C82.4812 3.44501 83.0848 2.3752 83.7467 1.34037C84.6724 -0.105734 86.6447 -0.437081 87.9959 0.622729C89.1781 1.551 89.4545 3.22272 88.6453 4.489C88.1025 5.33735 87.6088 6.214 87.1667 7.11147C84.6466 12.2299 84.2653 17.0835 83.9282 21.366C83.5569 26.079 83.2072 30.5305 79.3792 32.6693C78.0055 33.4369 76.6077 33.6384 75.4364 33.6267Z" fill="white"/>
<path d="M126.758 2.91455H126.748C126.717 2.91455 126.689 2.91622 126.658 2.91622H126.768C126.768 2.91622 126.762 2.91455 126.758 2.91455Z" fill="white"/>
<path d="M157.702 15.8466C157.195 15.0424 155.95 14.4438 154.312 14.9716C154.134 15.0274 153.993 15.0765 153.87 15.1231L153.401 15.3054L153.251 15.4212C153.251 15.4212 153.246 15.4228 153.242 15.427C153.146 15.4794 153.046 15.5369 152.937 15.6002C152.808 15.6701 152.634 15.7783 152.292 16.0164C152.036 16.1929 151.764 16.3877 151.461 16.6133C151.165 16.8298 150.924 17.0138 150.718 17.172C150.628 17.2427 150.494 17.3468 150.359 17.48L150.265 17.5541C150.137 17.6548 150.011 17.7706 149.886 17.9079C149.852 17.9454 149.814 17.9854 149.775 18.027L149.641 18.1319C149.42 18.0378 149.176 17.9429 148.906 17.8397C147.849 17.4392 146.772 17.102 145.686 16.7898C144.193 16.3603 142.642 16.0256 141.147 15.636C140.637 15.5044 140.076 15.4103 139.6 15.1739C139.259 15.0066 138.916 14.7193 138.916 14.3122C138.916 13.9051 139.075 13.4647 139.385 12.9502C139.747 12.355 140.3 11.7114 141.033 11.0387L141.08 10.9921C141.213 10.8606 141.392 10.7057 141.613 10.5342C141.871 10.3336 142.153 10.1196 142.45 9.89899C142.726 9.69502 143.004 9.49189 143.276 9.3004C143.512 9.13806 143.711 9.00652 143.87 8.91411L143.979 8.85084L144.003 8.83086C144.003 8.83086 144.009 8.82919 144.01 8.82753C144.115 8.77175 144.225 8.70681 144.344 8.63771L144.391 8.61107C144.491 8.5478 144.609 8.48119 144.74 8.40876C144.948 8.29721 145.13 8.19231 145.296 8.09157C145.411 8.01914 145.512 7.95837 145.608 7.90259C145.617 7.89676 145.625 7.89176 145.633 7.88843C145.829 7.82183 146.017 7.73525 146.196 7.62868C146.344 7.5471 146.625 7.41056 147.125 7.20992C147.604 7.02094 148.008 6.87108 148.329 6.76285C148.432 6.72872 148.564 6.69459 148.717 6.66212C148.734 6.65879 148.75 6.65462 148.768 6.65129C148.541 7.19077 148.207 7.74774 147.772 8.31219C147.624 8.4762 147.459 8.67434 147.27 8.91661C147.106 9.12557 146.927 9.3387 146.741 9.546C146.521 9.7916 146.314 10.0255 146.13 10.242C145.921 10.4834 145.824 10.5842 145.791 10.615L145.669 10.734L145.585 10.8606C145.582 10.8664 145.575 10.8731 145.562 10.888C145.531 10.9188 145.505 10.9438 145.483 10.9655L145.404 11.0246L145.362 11.0679L145.322 11.1095C145.108 11.3293 144.868 11.5641 144.605 11.8055C144.506 11.8954 144.407 11.9836 144.309 12.0669C144.107 12.4224 143.994 12.8312 143.994 13.2699C143.994 14.6261 145.093 15.7242 146.45 15.7242C146.731 15.7242 147.003 15.6776 147.255 15.5868C147.603 15.387 147.933 15.1664 148.242 14.9466C148.343 14.8725 148.442 14.8009 148.539 14.7285L148.566 14.7069C149.114 14.2831 149.612 13.8752 150.043 13.4972C150.303 13.2699 150.486 13.0934 150.621 12.9436C150.666 12.8911 150.708 12.8412 150.744 12.7904C150.877 12.6746 150.991 12.5556 151.093 12.4474C151.337 12.1934 151.604 11.8987 151.887 11.5749C152.182 11.2344 152.473 10.8756 152.748 10.5034C153.061 10.0813 153.254 9.7841 153.372 9.53684L153.451 9.37117L153.491 9.32455L153.554 9.19967C153.638 9.03566 153.703 8.88414 153.751 8.73262C153.768 8.686 153.78 8.64104 153.792 8.59941C153.859 8.48203 153.919 8.35215 153.971 8.2048C154.008 8.11072 154.039 8.00998 154.065 7.90342C154.175 7.65616 154.2 7.4039 154.2 7.11335V6.57803C154.2 6.20672 154.181 5.93615 154.136 5.72302C154.088 5.5049 154.005 5.27762 153.884 5.02536L153.841 4.94211C153.514 4.37266 153.026 3.87314 152.387 3.45271C151.727 3.02146 150.984 2.73674 150.18 2.6052L150.158 2.60187C149.611 2.51695 148.995 2.48865 148.279 2.51362C147.548 2.54276 146.918 2.62518 146.355 2.77171L146.226 2.80417L146.202 2.81333C146.127 2.82582 146.052 2.84247 145.981 2.85995C145.809 2.88743 145.654 2.93238 145.521 2.98067C145.518 2.98234 145.514 2.98234 145.51 2.984L145.365 3.01647C145.282 3.03811 145.141 3.07808 144.793 3.18964C144.541 3.26873 144.287 3.35531 144.039 3.44772C143.787 3.53763 143.558 3.62838 143.358 3.71246C143.262 3.75243 143.109 3.81487 142.941 3.91227C142.905 3.92476 142.869 3.93725 142.833 3.95223C142.731 3.99219 142.615 4.03715 142.483 4.0871C142.301 4.15953 142.13 4.2328 141.971 4.30856C141.8 4.39347 141.653 4.4709 141.515 4.56664C141.391 4.62575 141.243 4.69818 141.066 4.7831L140.98 4.82805C140.514 5.08198 140.087 5.32757 139.707 5.55652C139.505 5.67723 139.24 5.83791 139.011 6.05271C138.952 6.08684 138.892 6.12514 138.83 6.16593C138.62 6.30663 138.385 6.47064 138.111 6.67294C137.853 6.86192 137.582 7.06589 137.285 7.299C136.953 7.55542 136.679 7.79352 136.448 8.02414C135.87 8.58526 135.336 9.19301 134.857 9.83073C134.347 10.5176 133.987 11.1328 133.759 11.7156L133.747 11.748C133.148 13.4123 133.39 14.8967 134.457 16.1538C135.025 16.8281 135.736 17.4126 136.571 17.8921C137.35 18.3392 138.311 18.7446 139.427 19.0968L139.49 19.1168C139.786 19.1984 140.027 19.2666 140.208 19.3174L140.907 19.5139C141.241 19.608 141.658 19.7104 142.179 19.8311C142.664 19.9426 143.351 20.1 144.242 20.304C144.885 20.4571 145.425 20.5978 145.841 20.7169C146.07 20.7835 146.31 20.8576 146.559 20.9383C146.54 20.9542 146.523 20.9708 146.506 20.9891C146.49 21.0033 146.48 21.0124 146.475 21.0141C146.385 21.0865 146.308 21.1565 146.239 21.2289C145.942 21.4853 145.642 21.7392 145.341 21.9957C144.376 22.8165 143.579 23.8097 142.753 24.7655C141.913 25.7395 141.061 26.7169 140.382 27.8134C139.538 29.1712 138.741 30.9587 139.706 32.4572C140.196 33.2148 141.016 33.7934 142.077 34.1289C142.602 34.3096 143.208 34.3995 143.88 34.3995C144.485 34.3995 145.056 34.3362 145.577 34.2139L145.66 34.1922C146.131 34.0607 146.647 33.875 147.238 33.6203C147.813 33.3713 148.356 33.0899 148.85 32.7836C149.075 32.6554 149.313 32.5055 149.564 32.3348C149.813 32.165 150.059 31.9852 150.302 31.797L150.909 31.3242C151.155 31.1327 151.35 30.9703 151.499 30.8246L151.6 30.7164C151.61 30.7056 151.646 30.6623 151.734 30.5757C151.796 30.5141 151.83 30.4891 151.834 30.4841L151.923 30.41C152.152 30.2044 152.387 29.9696 152.641 29.6891C152.738 29.5792 152.868 29.4351 152.986 29.2578C153.146 29.108 153.261 28.9589 153.341 28.8557C153.525 28.6176 153.729 28.3146 153.961 27.9341C154.254 27.507 154.562 27.0466 154.639 26.5746C154.664 26.5263 154.681 26.4847 154.695 26.4538C154.76 26.299 154.825 26.1258 154.891 25.9219L154.899 25.8986C155.038 25.4423 155.106 24.9303 155.106 24.3725C155.106 23.7848 155.018 23.2794 154.836 22.8323C154.729 22.5152 154.587 22.2088 154.41 21.9199C154.331 21.79 154.255 21.676 154.181 21.5719C154.044 21.2938 153.808 21.0216 153.523 20.7369C153.535 20.726 153.549 20.7152 153.564 20.7027C153.862 20.4505 154.194 20.1724 154.558 19.8694C154.892 19.5938 155.245 19.3191 155.608 19.0543C155.985 18.7821 156.293 18.564 156.519 18.4066C156.788 18.2226 156.927 18.1327 156.995 18.0894C157.312 17.8929 157.535 17.7056 157.691 17.5033C158.099 16.9788 158.101 16.3494 157.7 15.8483L157.702 15.8466ZM150.848 25.1593C150.821 25.2941 150.789 25.4265 150.75 25.558C150.316 27.0674 149.227 28.382 148.071 29.401C147.658 29.7632 147.23 30.1095 146.79 30.44C146.566 30.6073 146.339 30.7697 146.108 30.9304C145.913 31.0636 145.674 31.3341 145.432 31.3649C145.528 31.0602 145.78 30.7497 145.944 30.4725C146.538 29.4551 147.271 28.4852 148.088 27.6377C148.602 27.1024 149.114 26.5662 149.628 26.0309C149.729 25.9244 150.954 24.7255 150.954 24.6656C150.991 24.723 150.865 25.0752 150.847 25.1601L150.848 25.1593Z" fill="white"/>
<path d="M136.615 27.4552C136.254 27.1647 135.809 26.974 135.324 26.9174C135.277 26.9116 135.235 26.9083 135.19 26.9066C135.147 26.9066 135.102 26.9033 135.061 26.9008H135.005C134.703 26.8991 134.415 26.9474 134.148 27.0415C133.984 27.1264 133.825 27.2021 133.663 27.2796C132.738 27.7067 131.795 28.0588 130.83 28.3294C128.024 29.1178 124.786 29.2885 121.718 28.8148C121.33 28.7531 120.962 28.6849 120.619 28.6124C119.963 28.4718 119.763 27.6401 120.276 27.2096C120.875 26.7051 121.489 26.0824 122.069 25.3123C122.464 24.7895 123.726 23.0079 124.384 20.7567C124.432 20.7492 124.48 20.7367 124.525 20.7259C125.516 20.4845 126.525 20.3021 127.536 20.1831C128.461 20.0732 129.393 20.0157 130.329 20.0083C130.926 20.0049 131.471 19.7718 131.877 19.3913C132.285 19.0109 132.553 18.4806 132.598 17.8895C132.703 16.5408 131.63 15.401 130.277 15.4102C129.18 15.4194 128.084 15.486 126.995 15.6142C126.162 15.7132 125.331 15.8489 124.507 16.0163C124.432 15.7582 124.337 15.5026 124.225 15.2429C123.792 14.228 123.175 13.4737 122.527 12.886C121.882 12.2965 121.2 11.8728 120.623 11.514C120.188 11.2434 120.114 10.6431 120.47 10.2718C120.565 10.1727 120.65 10.0862 120.715 10.0229C120.731 10.0062 120.748 9.99042 120.766 9.97211C120.769 9.97211 120.773 9.96878 120.775 9.96628C121.619 9.3244 122.538 8.81406 123.514 8.44442C124.74 7.97986 126.118 7.93074 127.415 7.96654C127.983 7.98236 128.549 8.03065 129.115 8.09142C130.278 8.21714 131.537 8.52267 132.495 7.63936C132.957 7.21394 133.266 6.62201 133.325 5.99511C133.332 5.91602 133.336 5.8361 133.336 5.75701C133.336 4.40665 132.391 3.62906 131.158 3.29605C130.311 3.06711 129.409 3.03214 128.537 2.98801C127.346 2.92807 126.151 2.95305 124.966 3.09375C122.689 3.36515 120.252 4.07363 118.392 5.46646C118.004 5.75701 117.626 6.08003 117.265 6.43635C117.239 6.46133 117.211 6.4888 117.184 6.51544C116.284 7.42457 114.609 9.1121 114.824 11.5431C115.033 13.8875 116.815 14.9964 117.993 15.7324C118.868 16.2769 119.414 16.639 119.659 17.2076C120.157 18.3657 119.413 20.2314 118.621 21.5393C117.505 18.3116 113.583 17.6047 110.119 16.9787C109.103 16.7947 107.535 16.5133 106.723 16.2053C107.277 15.5251 108.735 14.5061 109.5 13.9724C110.481 13.2872 111.497 12.5838 112.268 11.8178C113.565 10.5316 114.062 9.17205 113.745 7.78006C113.167 5.23002 110.21 4.13025 108.499 3.70066C105.482 2.94556 101.147 2.99717 98.868 5.63379C97.4177 7.30551 97.6183 9.05466 97.7765 10.4575C97.8722 11.2925 97.9696 12.1558 97.7873 13.2148C97.605 14.2755 97.1871 15.2512 96.6135 16.1545C96.2888 14.407 95.7984 12.5296 95.144 10.5457L90.4444 10.6773C91.3477 13.4021 92.1669 17.0686 92.3701 19.0017C92.4583 19.8526 92.0762 20.6826 91.3802 21.1821C90.9456 21.4943 90.5235 21.7915 90.1181 22.0729C89.1007 22.7797 88.2191 23.3933 87.5772 23.9936C85.6082 25.8243 86.2485 27.4669 86.6123 28.0871C87.9019 30.2659 91.3818 30.419 93.6347 29.102C95.6061 27.9514 96.7433 25.6903 97.0306 22.5849C97.1479 22.4784 97.2687 22.3718 97.386 22.2619C97.4651 22.1895 97.5451 22.1154 97.6225 22.0396C99.3233 20.422 100.859 18.5139 101.674 16.2902C102.48 14.1006 102.605 11.6988 102.287 9.40349C102.251 9.13874 102.215 8.84819 102.366 8.63173C102.436 8.5285 102.543 8.4569 102.649 8.3953C103.13 8.1139 103.69 7.99485 104.244 7.93407C105.816 7.76091 107.436 8.02982 108.869 8.69834C107.76 9.64659 106.506 10.415 105.342 11.2933C105.322 11.3075 105.304 11.3208 105.286 11.335C103.506 12.6853 101.692 14.5394 101.942 16.9579C102.058 18.0809 102.718 19.6161 105.199 20.5336C106.395 20.979 107.805 21.2329 109.302 21.5035C110.68 21.7524 112.103 22.0105 113.154 22.3976C114.132 22.7581 114.277 23.0487 114.28 23.0503C114.359 23.3026 114.148 24.2517 112.978 25.5895C111.744 26.989 109.993 28.212 108.287 28.8539C105.694 29.8313 103.185 29.4433 101.407 28.8664C100.898 28.7007 100.448 28.5217 100.076 28.3544C100.034 28.3527 99.9952 28.3485 99.9519 28.3485C99.2343 28.3427 98.5907 28.6532 98.147 29.1528L97.6982 29.9087C97.6067 30.156 97.5575 30.4224 97.5526 30.7004C97.5434 31.6037 98.0396 32.3955 98.773 32.8034C98.9662 32.8808 99.166 32.9599 99.3733 33.0382C100.83 33.5718 102.693 34.0405 104.791 34.0605C106.39 34.0763 108.123 33.8349 109.912 33.1572C110.981 32.7568 112.042 32.2065 113.043 31.5504C113.286 31.3898 113.526 31.2224 113.762 31.0509C113.867 31.1375 113.973 31.2224 114.088 31.3048C116.227 32.8717 120.322 33.9989 124.85 34.0464C127.246 34.0697 129.762 33.7924 132.176 33.1156C133.256 32.8126 134.318 32.4288 135.354 31.9709C135.848 31.7528 136.334 31.5196 136.815 31.2657C137.019 31.0651 137.184 30.8328 137.314 30.5789C137.343 30.5156 137.37 30.4582 137.395 30.3949C137.511 30.1102 137.573 29.798 137.579 29.4716C137.586 28.6549 137.209 27.9264 136.616 27.4536L136.615 27.4552ZM91.8306 27.9548C91.0189 28.4418 89.7301 28.4218 89.3838 27.8515C88.98 27.1847 91.1779 26.129 93.25 24.3824C93.2176 26.1457 92.7397 27.4119 91.8306 27.9548Z" fill="white"/>
<path d="M130.584 8.28029C130.417 8.28695 130.226 8.23367 130.063 8.19287C130.234 8.23616 130.409 8.25864 130.584 8.28029Z" fill="white"/>
<path d="M131.351 3.27795C131.229 3.25963 131.103 3.24048 130.973 3.22217C131.103 3.23133 131.229 3.24881 131.351 3.27795Z" fill="white"/>
<path d="M33.8649 25.3382H26.2172L24.0493 22.958L21.8898 23.684L23.6222 22.4527L22.3485 21.134V12.8878H33.7774L33.8241 8.46869L33.0149 7.95668L33.864 7.70359L33.9065 5.15272L20.7359 3.96387L12.3198 9.95642L12.3623 10.9355L13.8916 11.1461L12.4031 11.6156L13.1715 26.9567L21.2454 34.1747L35.0129 33.7518L33.864 25.3382H33.8649Z" fill="white"/>
<path d="M58.2397 32.268L56.001 31.7027L58.1564 31.4779L57.4921 25.2964L46.1455 26.1481L45.8924 23.6846L55.1518 22.7464V19.3655L52.9964 19.1407L55.1518 18.597V15.4817L45.676 15.182V14.5027L44.1916 14.3328L45.6335 13.7809L45.5936 12.2965L56.9401 12.8484L57.2673 6.57948L55.0461 6.35053L57.3081 5.78108L57.4055 3.96533L35.9062 4.77455L35.9487 6.77262L36.7979 7.36538L35.9487 7.74751L36.499 28.3593L38.8393 28.699L36.499 28.992L36.6289 33.8398L58.4253 33.9655L58.2405 32.2688L58.2397 32.268Z" fill="white"/>
<path d="M10.9603 16.2479L8.97051 16.749L10.9603 16.9555V28.4403L8.68578 29.0097L10.9603 29.2486V34.1756H0V11.9054L2.23784 11.3401L0 11.1053V3.89062H10.9603V16.2479Z" fill="white"/>
</g>
<defs>
<clipPath id="clip0_178_117">
<rect width="158" height="34.3976" fill="white"/>
</clipPath>
</defs>
</svg>
