<svg width="106" height="42" viewBox="0 0 106 42" fill="none" xmlns="http://www.w3.org/2000/svg">
<path d="M0.728516 21.6207V19.5576H3.66025V21.6207H0.728516ZM0.728516 30.6578V24.3131H3.66025V30.6578H0.728516Z" fill="#68C9D4"/>
<path d="M97.4164 20.8478C95.9974 19.4609 94.1762 19.5571 94.1762 19.5571C93.0681 19.5571 91.8021 19.984 90.9261 20.8601C89.4084 22.3778 89.4701 24.0386 89.4701 24.0386V30.6572H92.4018V24.0386C92.4018 24.0386 92.6856 22.4395 94.1737 22.4395C95.6618 22.4395 95.9456 24.0386 95.9456 24.0386V30.6572H98.8773V24.0386C98.8773 24.0386 99.1093 22.4395 100.649 22.4395C102.189 22.4395 102.488 24.0386 102.488 24.0386V30.6572H105.353V24.0386C105.353 24.0386 105.345 22.3037 103.889 20.8478C102.54 19.4979 100.649 19.5596 100.649 19.5596C98.6157 19.5596 97.4139 20.8502 97.4139 20.8502L97.4164 20.8478Z" fill="#68C9D4"/>
<path d="M88.3031 26.1762V19.5576H85.3713V26.1762C85.3713 26.1762 85.0851 27.7729 83.5994 27.7754C82.1138 27.7754 81.83 26.1762 81.83 26.1762V19.5576H78.8983V26.1762C78.8983 26.1762 78.8366 27.8371 80.3543 29.3548C81.2279 30.2284 82.4939 30.6553 83.6019 30.6578C84.71 30.6578 85.9784 30.2284 86.852 29.3548C88.3697 27.8371 88.308 26.1762 88.308 26.1762H88.3031Z" fill="#68C9D4"/>
<path d="M58.8105 24.0391V30.6578H61.7422V24.0391C61.7422 24.0391 62.0285 22.4425 63.5141 22.44C64.9997 22.44 65.2835 24.0391 65.2835 24.0391V30.6578H68.2152V24.0391C68.2152 24.0391 68.2769 22.3783 66.7592 20.8606C65.8856 19.987 64.6196 19.5601 63.5116 19.5576C62.4036 19.5576 61.1351 19.987 60.2615 20.8606C58.7438 22.3783 58.8055 24.0391 58.8055 24.0391H58.8105Z" fill="#68C9D4"/>
<path d="M73.5731 30.8816C72.1294 30.8816 70.6858 30.2943 69.9405 29.5959C69.9405 29.5959 69.6789 29.3442 69.4988 29.0826L71.4459 27.2688C71.4459 27.2688 71.6285 27.4859 71.7667 27.6118C72.1739 27.9943 73.6841 28.515 74.5405 27.9499C74.765 27.8141 74.9008 27.5674 74.9008 27.3181C74.9008 27.0022 74.6293 26.7777 74.4047 26.6864C74.2024 26.5728 73.8396 26.5728 73.4349 26.5728C72.8945 26.5728 72.2849 26.5506 71.6531 26.3236C70.4809 25.9411 69.5333 24.722 69.442 23.5498C69.3285 22.1283 69.938 21.2498 70.4563 20.7513C71.5841 19.7124 73.2301 19.5544 74.427 19.7593C75.3302 19.9172 76.0063 20.2331 76.5715 20.7513C76.5715 20.7513 76.9392 21.1017 77.3784 21.6817L75.5276 23.419C75.5276 23.419 75.2314 23.113 74.923 22.8736C74.6071 22.6491 74.3825 22.4911 73.9753 22.422C73.2992 22.3085 72.0357 22.3554 72.1245 23.3252C72.1467 23.4387 72.3491 23.7324 72.5317 23.799C72.7562 23.8657 73.0968 23.8657 73.4571 23.8657C74.0444 23.8879 74.7873 23.8879 75.5325 24.226C76.7738 24.7911 77.5857 26.0077 77.5857 27.3157C77.5857 28.4656 76.9984 29.549 76.0286 30.203C75.2611 30.699 74.427 30.8791 73.5706 30.8791L73.5731 30.8816Z" fill="#68C9D4"/>
<path d="M56.1772 28.6189L54.2449 26.6866C53.9759 27.2419 53.1862 27.765 52.0461 27.765C49.6844 27.765 49.7337 25.8747 49.7337 25.8747H57.3716C57.4036 25.6304 57.4234 25.3811 57.4234 25.1294C57.4234 22.0768 54.9482 19.6016 51.8955 19.6016C48.8429 19.6016 46.3677 22.0768 46.3677 25.1294C46.3677 28.1821 48.8429 30.6573 51.8955 30.6573C53.623 30.6573 55.1678 29.8626 56.1796 28.6213L56.1772 28.6189ZM52.0436 22.4593C53.6946 22.4593 54.2424 24.009 54.2424 24.0214C54.2424 24.0362 49.7757 24.0214 49.7757 24.0214C49.7757 24.0214 50.3926 22.4593 52.0436 22.4593Z" fill="#68C9D4"/>
<path d="M9.90132 21.6203C10.6836 21.6203 11.3795 22.1139 11.6387 22.8518L11.9027 23.602L13.9559 16.0604C14.1533 15.3324 14.795 14.824 15.5476 14.7969C15.5674 14.7969 15.5896 14.7969 15.6118 14.7969C16.3373 14.7969 16.9864 15.2584 17.2282 15.9419L20.5893 25.4972L25.446 7.37624C25.6409 6.65317 26.2727 6.14727 27.0204 6.11766C27.0426 6.11766 27.0648 6.11766 27.087 6.11766C27.8052 6.11766 28.4493 6.5742 28.6886 7.25285L36.2968 28.8831L38.4463 20.9935C38.6511 20.2433 39.3347 19.7201 40.1121 19.7201H45.7386C45.3142 8.7582 36.2944 0 25.2288 0C14.1632 0 4.69922 9.19006 4.69922 20.5296C4.69922 20.8973 4.70909 21.26 4.72883 21.6228H9.90132V21.6203Z" fill="#68C9D4"/>
<path d="M40.8496 22.4102L38.0635 32.6367C37.866 33.3623 37.2294 33.8657 36.4791 33.8928C36.4569 33.8928 36.4372 33.8928 36.4174 33.8928C35.6944 33.8928 35.0478 33.4338 34.8084 32.7527L27.2175 11.1719L22.3683 29.2657C22.1733 29.9937 21.5366 30.5021 20.784 30.5292C20.7618 30.5292 20.7396 30.5292 20.7173 30.5292C19.9943 30.5292 19.3477 30.0702 19.1083 29.3891L15.7299 19.7869L13.5928 27.637C13.4053 28.323 12.8031 28.8018 12.0924 28.8265C12.0727 28.8265 12.0529 28.8265 12.0332 28.8265C11.3496 28.8265 10.7376 28.3921 10.5105 27.748L9.30133 24.3129H5.04932C6.82366 33.8435 15.1845 41.0593 25.2285 41.0593C35.9313 41.0593 44.7216 32.8662 45.6717 22.4127H40.8521L40.8496 22.4102Z" fill="#68C9D4"/>
<path d="M105.365 38.7921C105.383 38.6588 105.392 38.5255 105.392 38.3898C105.392 36.7413 104.057 35.4062 102.409 35.4062C100.76 35.4062 99.4253 36.7413 99.4253 38.3898C99.4253 40.0383 100.76 41.3734 102.409 41.3734C103.342 41.3734 104.173 40.944 104.724 40.2727L103.68 39.2289C103.606 39.3794 103.465 39.5225 103.263 39.6311C103.063 39.7397 102.801 39.8113 102.493 39.8113C101.217 39.8113 101.244 38.7921 101.244 38.7921H105.368H105.365ZM102.49 36.9486C103.381 36.9486 103.677 37.7827 103.677 37.7926C103.677 37.8 101.266 37.7926 101.266 37.7926C101.266 37.7926 101.599 36.9486 102.49 36.9486Z" fill="#68C9D4"/>
<path d="M90.1367 36.9413V41.3735H92.1875V36.9413H90.1367ZM90.1367 33.6172V35.0559H92.1875V33.6172H90.1367Z" fill="#68C9D4"/>
<path d="M89.337 39.3227V41.3735H84.895V33.6172H86.9458V39.3227H89.337Z" fill="#68C9D4"/>
<path d="M99.4502 35.4043L98.2558 39.3232L97.6314 41.3739H94.7367L94.1124 39.3232L92.918 35.4043H95.0625L96.1853 39.0838L97.3057 35.4043H99.4502Z" fill="#68C9D4"/>
</svg>
