<svg width="69" height="69" viewBox="0 0 69 69" fill="none" xmlns="http://www.w3.org/2000/svg">
<mask id="path-1-outside-1_101_185" maskUnits="userSpaceOnUse" x="0" y="0" width="69" height="69" fill="black">
<rect fill="white" width="69" height="69"/>
<path d="M1 13C1 6.37258 6.37258 1 13 1H53C59.6274 1 65 6.37258 65 13V53C65 59.6274 59.6274 65 53 65H13C6.37258 65 1 59.6274 1 53V13Z"/>
</mask>
<path d="M1 13C1 6.37258 6.37258 1 13 1H53C59.6274 1 65 6.37258 65 13V53C65 59.6274 59.6274 65 53 65H13C6.37258 65 1 59.6274 1 53V13Z" fill="white"/>
<path d="M0 13C0 5.8203 5.8203 0 13 0H56C63.1797 0 69 5.8203 69 13H61C61 6.92487 57.4183 2 53 2H13C6.92487 2 2 6.92487 2 13H0ZM69 53C69 61.8366 61.8366 69 53 69H13C5.8203 69 0 63.1797 0 56L2 53C2 57.4183 6.92487 61 13 61H53C57.4183 61 61 57.4183 61 53H69ZM13 69C5.8203 69 0 63.1797 0 56V13C0 5.8203 5.8203 0 13 0V2C6.92487 2 2 6.92487 2 13V53C2 57.4183 6.92487 61 13 61V69ZM56 0C63.1797 0 69 5.8203 69 13V53C69 61.8366 61.8366 69 53 69V61C57.4183 61 61 57.4183 61 53V13C61 6.92487 57.4183 2 53 2L56 0Z" fill="#FDAC18" mask="url(#path-1-outside-1_101_185)"/>
<path d="M37.5365 45V35.7125H40.6463L41.1117 32.102H37.5365V29.7969C37.5365 28.7515 37.8267 28.0391 39.3257 28.0391L41.2377 28.0382V24.809C40.9069 24.7651 39.7721 24.6667 38.4517 24.6667C35.6951 24.6667 33.808 26.3493 33.808 29.4394V32.102H30.6903V35.7125H33.808V45H22.3333C21.597 45 21 44.4031 21 43.6667V22.3333C21 21.597 21.597 21 22.3333 21H43.6667C44.4031 21 45 21.597 45 22.3333V43.6667C45 44.4031 44.4031 45 43.6667 45H37.5365Z" fill="#FDAC18"/>
</svg>
