<svg width="32" height="34" viewBox="0 0 32 34" fill="none" xmlns="http://www.w3.org/2000/svg">
<g id="logos:whatsapp-icon" clip-path="url(#clip0_291_85)">
<path id="Vector" d="M0.682949 16.8071C0.682199 19.5168 1.3902 22.1625 2.73645 24.4945L0.554199 32.4623L8.7082 30.3243C10.9635 31.552 13.4904 32.1953 16.0582 32.1955H16.0649C24.5418 32.1955 31.4422 25.2976 31.4458 16.8193C31.4474 12.7109 29.8489 8.84764 26.9447 5.94114C24.0409 3.03489 20.1791 1.43352 16.0643 1.43164C7.58645 1.43164 0.686574 8.32914 0.683074 16.8071" fill="url(#paint0_linear_291_85)"/>
<path id="Vector_2" d="M0.13375 16.802C0.132875 19.6091 0.86625 22.3495 2.2605 24.765L0 33.0184L8.44637 30.8037C10.7736 32.0726 13.3939 32.7416 16.0601 32.7426H16.067C24.848 32.7426 31.9963 25.5966 32 16.8147C32.0015 12.5588 30.3455 8.55662 27.3375 5.546C24.3291 2.53575 20.3291 0.87675 16.067 0.875C7.2845 0.875 0.13725 8.02 0.13375 16.802ZM5.16388 24.349L4.8485 23.8484C3.52275 21.7404 2.823 19.3044 2.824 16.803C2.82675 9.50363 8.76725 3.565 16.072 3.565C19.6095 3.5665 22.934 4.9455 25.4345 7.4475C27.9349 9.94975 29.3108 13.276 29.3099 16.8138C29.3066 24.1131 23.366 30.0525 16.067 30.0525H16.0618C13.6851 30.0513 11.3542 29.413 9.3215 28.2069L8.83775 27.92L3.8255 29.2341L5.16388 24.349Z" fill="url(#paint1_linear_291_85)"/>
<path id="Vector_3" d="M12.0847 10.1434C11.7864 9.48055 11.4726 9.46718 11.1889 9.45555C10.9567 9.44555 10.6912 9.4463 10.4259 9.4463C10.1604 9.4463 9.72907 9.54618 9.36445 9.9443C8.99945 10.3428 7.97095 11.3058 7.97095 13.2644C7.97095 15.2231 9.39757 17.1161 9.59645 17.3819C9.79557 17.6473 12.3506 21.7953 16.3971 23.3911C19.7601 24.7172 20.4444 24.4534 21.1743 24.3869C21.9043 24.3207 23.5298 23.4242 23.8614 22.4946C24.1933 21.5651 24.1933 20.7683 24.0938 20.6018C23.9943 20.4359 23.7288 20.3363 23.3307 20.1373C22.9326 19.9383 20.9752 18.9751 20.6103 18.8422C20.2453 18.7094 19.9799 18.6432 19.7144 19.0418C19.4489 19.4398 18.6866 20.3363 18.4542 20.6018C18.2221 20.8679 17.9897 20.9011 17.5917 20.7019C17.1933 20.5022 15.9112 20.0823 14.3901 18.7262C13.2066 17.6709 12.4076 16.3678 12.1753 15.9692C11.9431 15.5712 12.1504 15.3554 12.3501 15.1571C12.5289 14.9787 12.7483 14.6922 12.9476 14.4598C13.1461 14.2273 13.2123 14.0614 13.3451 13.7959C13.4779 13.5302 13.4114 13.2977 13.3121 13.0986C13.2123 12.8994 12.4387 10.9306 12.0847 10.1434Z" fill="white"/>
</g>
<defs>
<linearGradient id="paint0_linear_291_85" x1="1545.14" y1="3104.49" x2="1545.14" y2="1.43164" gradientUnits="userSpaceOnUse">
<stop stop-color="#FDAC18"/>
<stop offset="1" stop-color="#FDAC18"/>
</linearGradient>
<linearGradient id="paint1_linear_291_85" x1="1600" y1="3215.21" x2="1600" y2="0.875" gradientUnits="userSpaceOnUse">
<stop stop-color="#F9F9F9"/>
<stop offset="1" stop-color="white"/>
</linearGradient>
<clipPath id="clip0_291_85">
<rect width="32" height="32.25" fill="white" transform="translate(0 0.875)"/>
</clipPath>
</defs>
</svg>
