<svg width="1085" height="237" viewBox="0 0 1085 237" fill="none" xmlns="http://www.w3.org/2000/svg">
<path d="M633.659 8.61914C618.84 18.7441 619.92 49.868 619.92 49.868H641.411C641.411 49.868 660.678 42.7045 660.678 29.2464C660.678 15.7884 633.659 8.62486 633.659 8.62486V8.61914Z" fill="white"/>
<path d="M518.032 230.913C511.177 230.844 505.454 229.712 501.915 229.009C451.833 219.101 414.158 155.436 401.391 60.949C399.865 49.6635 408.017 39.3612 419.36 38.315C430 37.3317 439.57 44.884 440.999 55.472C445.813 91.0153 454.555 122.116 466.583 146.231C479.087 171.295 494.391 186.765 509.667 189.79C514.167 190.682 520.964 192.025 525.59 189.435C533.199 185.182 534.72 165.904 536.475 143.584C538.945 112.226 542.015 73.2008 562.705 31.1744C566.41 23.6506 570.554 16.3042 575.1 9.19781C581.457 -0.732798 595.001 -3.0082 604.28 4.26967C612.398 10.6442 614.296 22.1242 608.739 30.8199C605.011 36.6456 601.621 42.6657 598.585 48.8288C581.28 83.9775 578.661 117.308 576.346 146.717C573.796 179.082 571.395 209.651 545.108 224.338C535.674 229.609 526.075 230.993 518.032 230.913Z" fill="white"/>
<path d="M870.467 20.0107H870.393C870.181 20.0107 869.987 20.0222 869.775 20.0222H870.53C870.53 20.0222 870.49 20.0107 870.467 20.0107Z" fill="white"/>
<path d="M1082.96 108.815C1079.48 103.292 1070.93 99.1814 1059.68 102.806C1058.46 103.189 1057.49 103.526 1056.64 103.847L1053.43 105.099L1052.4 105.893C1052.4 105.893 1052.36 105.905 1052.33 105.933C1051.68 106.293 1050.99 106.688 1050.24 107.122C1049.35 107.603 1048.16 108.346 1045.81 109.981C1044.05 111.193 1042.18 112.531 1040.1 114.08C1038.07 115.567 1036.41 116.83 1035 117.916C1034.38 118.402 1033.46 119.117 1032.54 120.032L1031.89 120.541C1031.01 121.232 1030.15 122.027 1029.29 122.97C1029.05 123.228 1028.79 123.502 1028.52 123.788L1027.61 124.508C1026.09 123.862 1024.41 123.21 1022.55 122.501C1015.3 119.752 1007.9 117.436 1000.45 115.292C990.19 112.342 979.544 110.044 969.276 107.368C965.772 106.465 961.919 105.819 958.648 104.195C956.31 103.046 953.955 101.074 953.955 98.2781C953.955 95.4825 955.047 92.4581 957.173 88.9249C959.66 84.8372 963.462 80.4179 968.493 75.7985L968.813 75.4783C969.728 74.575 970.957 73.5116 972.478 72.3339C974.25 70.9561 976.183 69.4868 978.224 67.9717C980.116 66.5711 982.025 65.1761 983.895 63.8611C985.519 62.7463 986.879 61.843 987.971 61.2084L988.726 60.7739L988.886 60.6367C988.886 60.6367 988.926 60.6253 988.937 60.6138C989.658 60.2308 990.412 59.7849 991.23 59.3103L991.55 59.1274C992.242 58.6929 993.048 58.2355 993.951 57.7381C995.375 56.972 996.627 56.2517 997.765 55.5599C998.559 55.0625 999.251 54.6452 999.909 54.2621C999.971 54.2221 1000.02 54.1878 1000.08 54.1649C1001.43 53.7076 1002.72 53.113 1003.94 52.3812C1004.96 51.8209 1006.89 50.8833 1010.33 49.5055C1013.62 48.2077 1016.39 47.1786 1018.6 46.4354C1019.3 46.201 1020.21 45.9666 1021.26 45.7436C1021.38 45.7208 1021.48 45.6922 1021.61 45.6693C1020.05 49.374 1017.76 53.1987 1014.77 57.0749C1013.76 58.2012 1012.62 59.5619 1011.32 61.2256C1010.19 62.6606 1008.96 64.1241 1007.69 65.5477C1006.18 67.2342 1004.76 68.8407 1003.49 70.3272C1002.06 71.9851 1001.39 72.6769 1001.17 72.8885L1000.33 73.706L999.754 74.575C999.731 74.615 999.68 74.6608 999.594 74.7637C999.383 74.9752 999.2 75.1467 999.051 75.2954L998.508 75.7013L998.222 75.9986L997.948 76.2844C996.473 77.7937 994.826 79.4059 993.019 81.0639C992.339 81.6814 991.659 82.2874 990.99 82.8591C989.601 85.3003 988.823 88.1074 988.823 91.1203C988.823 100.433 996.375 107.974 1005.69 107.974C1007.62 107.974 1009.49 107.654 1011.22 107.031C1013.61 105.659 1015.88 104.144 1018 102.635C1018.69 102.126 1019.37 101.634 1020.04 101.137L1020.22 100.988C1023.98 98.078 1027.4 95.2766 1030.36 92.6811C1032.15 91.1203 1033.41 89.9083 1034.34 88.8792C1034.65 88.519 1034.93 88.176 1035.18 87.8272C1036.09 87.0326 1036.88 86.215 1037.58 85.4718C1039.25 83.7281 1041.08 81.7042 1043.03 79.4803C1045.06 77.142 1047.05 74.6779 1048.94 72.1224C1051.09 69.2238 1052.41 67.1828 1053.23 65.4848L1053.77 64.3471L1054.04 64.0269L1054.48 63.1694C1055.05 62.0431 1055.5 61.0026 1055.83 59.9621C1055.94 59.6419 1056.03 59.3332 1056.11 59.0473C1056.57 58.2412 1056.98 57.3494 1057.34 56.3374C1057.59 55.6914 1057.81 54.9996 1057.98 54.2678C1058.74 52.5699 1058.91 50.8376 1058.91 48.8423V45.1662C1058.91 42.6164 1058.78 40.7583 1058.47 39.2948C1058.14 37.7969 1057.57 36.2361 1056.74 34.5038L1056.44 33.9321C1054.2 30.0216 1050.85 26.5913 1046.46 23.7042C1041.93 20.7428 1036.83 18.7875 1031.31 17.8842L1031.16 17.8613C1027.4 17.2782 1023.17 17.0838 1018.25 17.2553C1013.23 17.4554 1008.91 18.0214 1005.04 19.0276L1004.15 19.2506L1003.99 19.3135C1003.47 19.3992 1002.96 19.5136 1002.47 19.6336C1001.29 19.8223 1000.23 20.131 999.314 20.4626C999.291 20.474 999.263 20.474 999.24 20.4855L998.239 20.7084C997.667 20.8571 996.701 21.1315 994.311 21.8976C992.579 22.4407 990.841 23.0353 989.138 23.6699C987.405 24.2874 985.833 24.9105 984.455 25.4879C983.798 25.7624 982.746 26.1912 981.597 26.8601C981.351 26.9458 981.099 27.0316 980.854 27.1345C980.15 27.4089 979.356 27.7176 978.452 28.0606C977.2 28.558 976.023 29.0611 974.936 29.5814C973.759 30.1645 972.747 30.6962 971.803 31.3537C970.951 31.7596 969.934 32.257 968.722 32.8401L968.127 33.1489C964.931 34.8926 961.999 36.5791 959.386 38.1513C957.997 38.9803 956.179 40.0837 954.606 41.5587C954.2 41.7931 953.789 42.0561 953.366 42.3363C951.919 43.3024 950.307 44.4287 948.426 45.818C946.654 47.1158 944.796 48.5164 942.755 50.1172C940.474 51.8781 938.593 53.5132 937.009 55.0968C933.036 58.9501 929.371 63.1236 926.084 67.5029C922.579 72.2196 920.104 76.4445 918.543 80.4465L918.457 80.6694C914.347 92.0979 916.005 102.292 923.334 110.924C927.233 115.555 932.115 119.569 937.85 122.862C943.201 125.932 949.798 128.716 957.465 131.134L957.899 131.272C959.929 131.832 961.587 132.301 962.827 132.649L967.63 133.999C969.922 134.645 972.781 135.348 976.36 136.177C979.693 136.943 984.409 138.023 990.527 139.424C994.946 140.476 998.651 141.442 1001.51 142.26C1003.08 142.717 1004.73 143.226 1006.44 143.781C1006.31 143.889 1006.19 144.004 1006.08 144.129C1005.97 144.226 1005.89 144.289 1005.87 144.301C1005.25 144.798 1004.72 145.278 1004.24 145.776C1002.2 147.537 1000.14 149.28 998.073 151.041C991.447 156.678 985.976 163.499 980.305 170.062C974.536 176.751 968.687 183.463 964.022 190.992C958.225 200.317 952.754 212.592 959.38 222.882C962.747 228.085 968.373 232.058 975.662 234.362C979.264 235.603 983.426 236.22 988.046 236.22C992.196 236.22 996.118 235.786 999.697 234.945L1000.27 234.797C1003.5 233.894 1007.04 232.619 1011.1 230.869C1015.05 229.16 1018.78 227.227 1022.17 225.123C1023.72 224.243 1025.36 223.214 1027.08 222.042C1028.79 220.876 1030.47 219.641 1032.14 218.349L1036.32 215.101C1038 213.786 1039.34 212.672 1040.36 211.671L1041.05 210.928C1041.13 210.854 1041.37 210.556 1041.98 209.962C1042.4 209.539 1042.64 209.367 1042.66 209.333L1043.28 208.824C1044.85 207.412 1046.46 205.8 1048.21 203.873C1048.88 203.118 1049.77 202.129 1050.57 200.912C1051.68 199.882 1052.47 198.859 1053.01 198.15C1054.28 196.515 1055.68 194.434 1057.27 191.821C1059.28 188.888 1061.4 185.727 1061.93 182.485C1062.1 182.154 1062.21 181.868 1062.31 181.656C1062.76 180.593 1063.2 179.404 1063.66 178.003L1063.71 177.843C1064.67 174.71 1065.13 171.194 1065.13 167.364C1065.13 163.327 1064.53 159.857 1063.28 156.787C1062.54 154.609 1061.57 152.505 1060.36 150.521C1059.81 149.629 1059.29 148.846 1058.78 148.131C1057.84 146.222 1056.22 144.352 1054.26 142.397C1054.35 142.323 1054.44 142.248 1054.55 142.163C1056.59 140.43 1058.87 138.521 1061.37 136.44C1063.67 134.547 1066.09 132.661 1068.58 130.843C1071.17 128.973 1073.29 127.475 1074.84 126.395C1076.68 125.131 1077.64 124.514 1078.11 124.217C1080.29 122.867 1081.81 121.581 1082.89 120.192C1085.69 116.59 1085.7 112.268 1082.95 108.826L1082.96 108.815ZM1035.89 172.766C1035.71 173.692 1035.49 174.601 1035.22 175.505C1032.24 185.87 1024.76 194.897 1016.82 201.895C1013.98 204.382 1011.05 206.76 1008.03 209.03C1006.49 210.179 1004.93 211.294 1003.34 212.397C1002.01 213.312 1000.36 215.17 998.702 215.382C999.36 213.289 1001.09 211.157 1002.22 209.253C1006.29 202.266 1011.33 195.606 1016.94 189.786C1020.47 186.11 1023.99 182.428 1027.52 178.752C1028.21 178.02 1036.62 169.788 1036.62 169.376C1036.88 169.77 1036.01 172.189 1035.89 172.772L1035.89 172.766Z" fill="white"/>
<path d="M938.151 188.529C935.676 186.534 932.617 185.225 929.284 184.836C928.964 184.796 928.678 184.773 928.369 184.762C928.072 184.762 927.763 184.739 927.477 184.722H927.094C925.025 184.71 923.046 185.042 921.211 185.688C920.085 186.271 918.993 186.791 917.878 187.323C911.527 190.256 905.049 192.674 898.423 194.532C879.156 199.946 856.923 201.118 835.849 197.865C833.185 197.442 830.658 196.973 828.308 196.476C823.803 195.51 822.426 189.798 825.953 186.843C830.064 183.378 834.277 179.102 838.262 173.813C840.972 170.223 849.645 157.988 854.161 142.529C854.493 142.478 854.819 142.392 855.127 142.318C861.936 140.66 868.86 139.408 875.806 138.59C882.158 137.836 888.561 137.441 894.987 137.39C899.086 137.367 902.825 135.766 905.615 133.153C908.416 130.541 910.257 126.899 910.566 122.84C911.286 113.578 903.917 105.751 894.627 105.814C887.097 105.877 879.568 106.334 872.09 107.215C866.367 107.895 860.662 108.827 855.002 109.976C854.493 108.204 853.835 106.449 853.069 104.665C850.096 97.6958 845.86 92.5161 841.406 88.4799C836.976 84.4321 832.293 81.5221 828.331 79.0581C825.347 77.2 824.838 73.078 827.279 70.5282C827.937 69.8478 828.52 69.2532 828.966 68.8187C829.075 68.7044 829.189 68.5958 829.315 68.47C829.338 68.47 829.366 68.4471 829.378 68.43C835.175 64.0221 841.486 60.5175 848.187 57.9791C856.608 54.789 866.07 54.4517 874.971 54.6975C878.876 54.8061 882.764 55.1377 886.646 55.5551C894.638 56.4183 903.282 58.5165 909.863 52.4507C913.03 49.5292 915.157 45.4644 915.557 41.1594C915.608 40.6163 915.631 40.0674 915.631 39.5243C915.631 30.2512 909.143 24.9114 900.675 22.6245C894.861 21.0523 888.67 20.8122 882.678 20.5092C874.503 20.0976 866.293 20.2691 858.157 21.2353C842.521 23.0991 825.787 27.9643 813.015 37.529C810.351 39.5243 807.75 41.7425 805.274 44.1895C805.091 44.361 804.903 44.5496 804.72 44.7326C798.54 50.9757 787.037 62.5642 788.512 79.2582C789.947 95.3575 802.181 102.973 810.271 108.027C816.28 111.766 820.03 114.253 821.711 118.157C825.13 126.11 820.024 138.922 814.587 147.903C806.921 125.738 779.988 120.884 756.199 116.585C749.224 115.322 738.453 113.389 732.879 111.274C736.681 106.603 746.697 99.6053 751.951 95.9407C758.686 91.2355 765.661 86.4045 770.96 81.1448C779.862 72.3119 783.281 62.9759 781.102 53.4169C777.129 35.9054 756.828 28.3531 745.079 25.4031C724.36 20.2176 694.591 20.5721 678.938 38.6782C668.979 50.1581 670.357 62.1698 671.443 71.8031C672.1 77.5373 672.769 83.466 671.517 90.7381C670.265 98.0217 667.395 104.722 663.456 110.925C661.226 98.925 657.859 86.0329 653.365 72.4091L621.092 73.3124C627.296 92.0245 632.921 117.203 634.316 130.478C634.922 136.321 632.298 142.021 627.518 145.451C624.534 147.595 621.636 149.636 618.851 151.568C611.865 156.422 605.811 160.635 601.403 164.757C587.882 177.329 592.278 188.609 594.777 192.868C603.632 207.83 627.53 208.882 643 199.838C656.538 191.937 664.348 176.409 666.32 155.084C667.126 154.352 667.955 153.621 668.762 152.866C669.305 152.368 669.854 151.86 670.385 151.339C682.065 140.231 692.613 127.127 698.21 111.857C703.744 96.8211 704.602 80.3273 702.418 64.5652C702.172 62.7472 701.921 60.7519 702.961 59.2655C703.441 58.5565 704.173 58.0649 704.905 57.6418C708.21 55.7094 712.051 54.8919 715.853 54.4745C726.653 53.2854 737.773 55.132 747.617 59.7228C740.002 66.2346 731.392 71.5115 723.394 77.543C723.257 77.6402 723.137 77.7317 723.011 77.8289C710.788 87.102 698.33 99.834 700.051 116.442C700.846 124.155 705.374 134.697 722.417 140.997C730.626 144.056 740.311 145.8 750.59 147.658C760.052 149.367 769.823 151.139 777.043 153.798C783.755 156.273 784.756 158.269 784.773 158.28C785.316 160.012 783.87 166.53 775.831 175.717C767.359 185.328 755.335 193.726 743.621 198.134C725.812 204.846 708.587 202.182 696.375 198.22C692.882 197.082 689.789 195.853 687.233 194.704C686.948 194.692 686.679 194.664 686.382 194.664C681.454 194.624 677.034 196.756 673.987 200.186L670.906 205.377C670.277 207.075 669.939 208.905 669.905 210.814C669.842 217.017 673.25 222.454 678.286 225.256C679.613 225.788 680.985 226.331 682.408 226.868C692.413 230.533 705.208 233.751 719.609 233.889C730.592 233.997 742.495 232.339 754.781 227.686C762.122 224.936 769.405 221.157 776.277 216.652C777.947 215.548 779.599 214.399 781.217 213.221C781.937 213.816 782.663 214.399 783.458 214.965C798.145 225.725 826.268 233.466 857.363 233.791C873.811 233.952 891.094 232.048 907.667 227.4C915.083 225.319 922.378 222.683 929.49 219.539C932.886 218.041 936.224 216.44 939.523 214.696C940.924 213.318 942.061 211.723 942.953 209.98C943.153 209.545 943.336 209.151 943.508 208.716C944.303 206.761 944.731 204.617 944.771 202.376C944.823 196.768 942.233 191.765 938.157 188.518L938.151 188.529ZM630.611 191.959C625.037 195.304 616.187 195.167 613.809 191.251C611.036 186.671 626.129 179.422 640.359 167.427C640.136 179.536 636.855 188.232 630.611 191.959Z" fill="white"/>
<path d="M896.736 56.8513C895.592 56.897 894.277 56.5311 893.157 56.251C894.334 56.5483 895.535 56.7026 896.736 56.8513Z" fill="white"/>
<path d="M902.009 22.5002C901.168 22.3745 900.299 22.243 899.407 22.1172C900.299 22.1801 901.168 22.3001 902.009 22.5002Z" fill="white"/>
<path d="M232.554 173.992H180.037L165.15 157.647L150.32 162.632L162.217 154.176L153.47 145.12V88.4926H231.954L232.274 58.1462L226.717 54.6302L232.549 52.8922L232.84 35.375L142.396 27.2109L84.6016 68.3626L84.8931 75.086L95.3954 76.5324L85.1733 79.7568L90.4502 185.106L145.895 234.673L240.438 231.769L232.549 173.992H232.554Z" fill="white"/>
<path d="M399.939 221.582L384.566 217.7L399.368 216.157L394.806 173.707L316.887 179.556L315.149 162.639L378.735 156.196V132.979L363.933 131.435L378.735 127.702V106.308L313.663 104.25V99.585L303.469 98.4187L313.371 94.6283L313.097 84.4347L391.015 88.2251L393.262 45.1753L378.009 43.6031L393.542 39.6926L394.211 27.2236L246.573 32.7807L246.864 46.5017L252.696 50.5723L246.864 53.1964L250.643 194.74L266.714 197.073L250.643 199.085L251.535 232.376L401.214 233.239L399.945 221.588L399.939 221.582Z" fill="white"/>
<path d="M75.2655 111.57L61.6017 115.012L75.2655 116.429V195.297L59.6464 199.207L75.2655 200.848V234.682H0V81.7495L15.3675 77.8676L0 76.2554V26.7109H75.2655V111.57Z" fill="white"/>
</svg>
