<svg width="1086" height="237" viewBox="0 0 1086 237" fill="none" xmlns="http://www.w3.org/2000/svg">
<g opacity="0.2">
<path d="M634.159 8.61914C619.34 18.7441 620.42 49.868 620.42 49.868H641.911C641.911 49.868 661.178 42.7045 661.178 29.2464C661.178 15.7884 634.159 8.62486 634.159 8.62486V8.61914Z" fill="white"/>
<path d="M518.532 230.913C511.677 230.844 505.954 229.712 502.415 229.009C452.333 219.101 414.658 155.436 401.891 60.949C400.365 49.6635 408.517 39.3612 419.86 38.315C430.5 37.3317 440.07 44.884 441.499 55.472C446.313 91.0153 455.055 122.116 467.083 146.231C479.587 171.295 494.891 186.765 510.167 189.79C514.667 190.682 521.464 192.025 526.09 189.435C533.699 185.182 535.22 165.904 536.975 143.584C539.445 112.226 542.515 73.2008 563.205 31.1744C566.91 23.6506 571.054 16.3042 575.6 9.19781C581.957 -0.732798 595.501 -3.0082 604.78 4.26967C612.898 10.6442 614.796 22.1242 609.239 30.8199C605.511 36.6456 602.121 42.6657 599.085 48.8288C581.78 83.9775 579.161 117.308 576.846 146.717C574.296 179.082 571.895 209.651 545.608 224.338C536.174 229.609 526.575 230.993 518.532 230.913Z" fill="white"/>
<path d="M870.967 20.0107H870.893C870.681 20.0107 870.487 20.0222 870.275 20.0222H871.03C871.03 20.0222 870.99 20.0107 870.967 20.0107Z" fill="white"/>
<path d="M1083.46 108.815C1079.98 103.292 1071.43 99.1814 1060.18 102.806C1058.96 103.189 1057.99 103.526 1057.14 103.847L1053.93 105.099L1052.9 105.893C1052.9 105.893 1052.86 105.905 1052.83 105.933C1052.18 106.293 1051.49 106.688 1050.74 107.122C1049.85 107.603 1048.66 108.346 1046.31 109.981C1044.55 111.193 1042.68 112.531 1040.6 114.08C1038.57 115.567 1036.91 116.83 1035.5 117.916C1034.88 118.402 1033.96 119.117 1033.04 120.032L1032.39 120.541C1031.51 121.232 1030.65 122.027 1029.79 122.97C1029.55 123.228 1029.29 123.502 1029.02 123.788L1028.11 124.508C1026.59 123.862 1024.91 123.21 1023.05 122.501C1015.8 119.752 1008.4 117.436 1000.95 115.292C990.69 112.342 980.044 110.044 969.776 107.368C966.272 106.465 962.419 105.819 959.148 104.195C956.81 103.046 954.455 101.074 954.455 98.2781C954.455 95.4825 955.547 92.4581 957.673 88.9249C960.16 84.8372 963.962 80.4179 968.993 75.7985L969.313 75.4783C970.228 74.575 971.457 73.5116 972.978 72.3339C974.75 70.9561 976.683 69.4868 978.724 67.9717C980.616 66.5711 982.525 65.1761 984.395 63.8611C986.019 62.7463 987.379 61.843 988.471 61.2084L989.226 60.7739L989.386 60.6367C989.386 60.6367 989.426 60.6253 989.437 60.6138C990.158 60.2308 990.912 59.7849 991.73 59.3103L992.05 59.1274C992.742 58.6929 993.548 58.2355 994.451 57.7381C995.875 56.972 997.127 56.2517 998.265 55.5599C999.059 55.0625 999.751 54.6452 1000.41 54.2621C1000.47 54.2221 1000.52 54.1878 1000.58 54.1649C1001.93 53.7076 1003.22 53.113 1004.44 52.3812C1005.46 51.8209 1007.39 50.8833 1010.83 49.5055C1014.12 48.2077 1016.89 47.1786 1019.1 46.4354C1019.8 46.201 1020.71 45.9666 1021.76 45.7436C1021.88 45.7208 1021.98 45.6922 1022.11 45.6693C1020.55 49.374 1018.26 53.1987 1015.27 57.0749C1014.26 58.2012 1013.12 59.5619 1011.82 61.2256C1010.69 62.6606 1009.46 64.1241 1008.19 65.5477C1006.68 67.2342 1005.26 68.8407 1003.99 70.3272C1002.56 71.9851 1001.89 72.6769 1001.67 72.8885L1000.83 73.706L1000.25 74.575C1000.23 74.615 1000.18 74.6608 1000.09 74.7637C999.883 74.9752 999.7 75.1467 999.551 75.2954L999.008 75.7013L998.722 75.9986L998.448 76.2844C996.973 77.7937 995.326 79.4059 993.519 81.0639C992.839 81.6814 992.159 82.2874 991.49 82.8591C990.101 85.3003 989.323 88.1074 989.323 91.1203C989.323 100.433 996.875 107.974 1006.19 107.974C1008.12 107.974 1009.99 107.654 1011.72 107.031C1014.11 105.659 1016.38 104.144 1018.5 102.635C1019.19 102.126 1019.87 101.634 1020.54 101.137L1020.72 100.988C1024.48 98.078 1027.9 95.2766 1030.86 92.6811C1032.65 91.1203 1033.91 89.9083 1034.84 88.8792C1035.15 88.519 1035.43 88.176 1035.68 87.8272C1036.59 87.0326 1037.38 86.215 1038.08 85.4718C1039.75 83.7281 1041.58 81.7042 1043.53 79.4803C1045.56 77.142 1047.55 74.6779 1049.44 72.1224C1051.59 69.2238 1052.91 67.1828 1053.73 65.4848L1054.27 64.3471L1054.54 64.0269L1054.98 63.1694C1055.55 62.0431 1056 61.0026 1056.33 59.9621C1056.44 59.6419 1056.53 59.3332 1056.61 59.0473C1057.07 58.2412 1057.48 57.3494 1057.84 56.3374C1058.09 55.6914 1058.31 54.9996 1058.48 54.2678C1059.24 52.5699 1059.41 50.8376 1059.41 48.8423V45.1662C1059.41 42.6164 1059.28 40.7583 1058.97 39.2948C1058.64 37.7969 1058.07 36.2361 1057.24 34.5038L1056.94 33.9321C1054.7 30.0216 1051.35 26.5913 1046.96 23.7042C1042.43 20.7428 1037.33 18.7875 1031.81 17.8842L1031.66 17.8613C1027.9 17.2782 1023.67 17.0838 1018.75 17.2553C1013.73 17.4554 1009.41 18.0214 1005.54 19.0276L1004.65 19.2506L1004.49 19.3135C1003.97 19.3992 1003.46 19.5136 1002.97 19.6336C1001.79 19.8223 1000.73 20.131 999.814 20.4626C999.791 20.474 999.763 20.474 999.74 20.4855L998.739 20.7084C998.167 20.8571 997.201 21.1315 994.811 21.8976C993.079 22.4407 991.341 23.0353 989.638 23.6699C987.905 24.2874 986.333 24.9105 984.955 25.4879C984.298 25.7624 983.246 26.1912 982.097 26.8601C981.851 26.9458 981.599 27.0316 981.354 27.1345C980.65 27.4089 979.856 27.7176 978.952 28.0606C977.7 28.558 976.523 29.0611 975.436 29.5814C974.259 30.1645 973.247 30.6962 972.303 31.3537C971.451 31.7596 970.434 32.257 969.222 32.8401L968.627 33.1489C965.431 34.8926 962.499 36.5791 959.886 38.1513C958.497 38.9803 956.679 40.0837 955.106 41.5587C954.7 41.7931 954.289 42.0561 953.866 42.3363C952.419 43.3024 950.807 44.4287 948.926 45.818C947.154 47.1158 945.296 48.5164 943.255 50.1172C940.974 51.8781 939.093 53.5132 937.509 55.0968C933.536 58.9501 929.871 63.1236 926.584 67.5029C923.079 72.2196 920.604 76.4445 919.043 80.4465L918.957 80.6694C914.847 92.0979 916.505 102.292 923.834 110.924C927.733 115.555 932.615 119.569 938.35 122.862C943.701 125.932 950.298 128.716 957.965 131.134L958.399 131.272C960.429 131.832 962.087 132.301 963.327 132.649L968.13 133.999C970.422 134.645 973.281 135.348 976.86 136.177C980.193 136.943 984.909 138.023 991.027 139.424C995.446 140.476 999.151 141.442 1002.01 142.26C1003.58 142.717 1005.23 143.226 1006.94 143.781C1006.81 143.889 1006.69 144.004 1006.58 144.129C1006.47 144.226 1006.39 144.289 1006.37 144.301C1005.75 144.798 1005.22 145.278 1004.74 145.776C1002.7 147.537 1000.64 149.28 998.573 151.041C991.947 156.678 986.476 163.499 980.805 170.062C975.036 176.751 969.187 183.463 964.522 190.992C958.725 200.317 953.254 212.592 959.88 222.882C963.247 228.085 968.873 232.058 976.162 234.362C979.764 235.603 983.926 236.22 988.546 236.22C992.696 236.22 996.618 235.786 1000.2 234.945L1000.77 234.797C1004 233.894 1007.54 232.619 1011.6 230.869C1015.55 229.16 1019.28 227.227 1022.67 225.123C1024.22 224.243 1025.86 223.214 1027.58 222.042C1029.29 220.876 1030.97 219.641 1032.64 218.349L1036.82 215.101C1038.5 213.786 1039.84 212.672 1040.86 211.671L1041.55 210.928C1041.63 210.854 1041.87 210.556 1042.48 209.962C1042.9 209.539 1043.14 209.367 1043.16 209.333L1043.78 208.824C1045.35 207.412 1046.96 205.8 1048.71 203.873C1049.38 203.118 1050.27 202.129 1051.07 200.912C1052.18 199.882 1052.97 198.859 1053.51 198.15C1054.78 196.515 1056.18 194.434 1057.77 191.821C1059.78 188.888 1061.9 185.727 1062.43 182.485C1062.6 182.154 1062.71 181.868 1062.81 181.656C1063.26 180.593 1063.7 179.404 1064.16 178.003L1064.21 177.843C1065.17 174.71 1065.63 171.194 1065.63 167.364C1065.63 163.327 1065.03 159.857 1063.78 156.787C1063.04 154.609 1062.07 152.505 1060.86 150.521C1060.31 149.629 1059.79 148.846 1059.28 148.131C1058.34 146.222 1056.72 144.352 1054.76 142.397C1054.85 142.323 1054.94 142.248 1055.05 142.163C1057.09 140.43 1059.37 138.521 1061.87 136.44C1064.17 134.547 1066.59 132.661 1069.08 130.843C1071.67 128.973 1073.79 127.475 1075.34 126.395C1077.18 125.131 1078.14 124.514 1078.61 124.217C1080.79 122.867 1082.31 121.581 1083.39 120.192C1086.19 116.59 1086.2 112.268 1083.45 108.826L1083.46 108.815ZM1036.39 172.766C1036.21 173.692 1035.99 174.601 1035.72 175.505C1032.74 185.87 1025.26 194.897 1017.32 201.895C1014.48 204.382 1011.55 206.76 1008.53 209.03C1006.99 210.179 1005.43 211.294 1003.84 212.397C1002.51 213.312 1000.86 215.17 999.202 215.382C999.86 213.289 1001.59 211.157 1002.72 209.253C1006.79 202.266 1011.83 195.606 1017.44 189.786C1020.97 186.11 1024.49 182.428 1028.02 178.752C1028.71 178.02 1037.12 169.788 1037.12 169.376C1037.38 169.77 1036.51 172.189 1036.39 172.772L1036.39 172.766Z" fill="white"/>
<path d="M938.651 188.529C936.176 186.534 933.117 185.225 929.784 184.836C929.464 184.796 929.178 184.773 928.869 184.762C928.572 184.762 928.263 184.739 927.977 184.722H927.594C925.525 184.71 923.546 185.042 921.711 185.688C920.585 186.271 919.493 186.791 918.378 187.323C912.027 190.256 905.549 192.674 898.923 194.532C879.656 199.946 857.423 201.118 836.349 197.865C833.685 197.442 831.158 196.973 828.808 196.476C824.303 195.51 822.926 189.798 826.453 186.843C830.564 183.378 834.777 179.102 838.762 173.813C841.472 170.223 850.145 157.988 854.661 142.529C854.993 142.478 855.319 142.392 855.627 142.318C862.436 140.66 869.36 139.408 876.306 138.59C882.658 137.836 889.061 137.441 895.487 137.39C899.586 137.367 903.325 135.766 906.115 133.153C908.916 130.541 910.757 126.899 911.066 122.84C911.786 113.578 904.417 105.751 895.127 105.814C887.597 105.877 880.068 106.334 872.59 107.215C866.867 107.895 861.162 108.827 855.502 109.976C854.993 108.204 854.335 106.449 853.569 104.665C850.596 97.6958 846.36 92.5161 841.906 88.4799C837.476 84.4321 832.793 81.5221 828.831 79.0581C825.847 77.2 825.338 73.078 827.779 70.5282C828.437 69.8478 829.02 69.2532 829.466 68.8187C829.575 68.7044 829.689 68.5958 829.815 68.47C829.838 68.47 829.866 68.4471 829.878 68.43C835.675 64.0221 841.986 60.5175 848.687 57.9791C857.108 54.789 866.57 54.4517 875.471 54.6975C879.376 54.8061 883.264 55.1377 887.146 55.5551C895.138 56.4183 903.782 58.5165 910.363 52.4507C913.53 49.5292 915.657 45.4644 916.057 41.1594C916.108 40.6163 916.131 40.0674 916.131 39.5243C916.131 30.2512 909.643 24.9114 901.175 22.6245C895.361 21.0523 889.17 20.8122 883.178 20.5092C875.003 20.0976 866.793 20.2691 858.657 21.2353C843.021 23.0991 826.287 27.9643 813.515 37.529C810.851 39.5243 808.25 41.7425 805.774 44.1895C805.591 44.361 805.403 44.5496 805.22 44.7326C799.04 50.9757 787.537 62.5642 789.012 79.2582C790.447 95.3575 802.681 102.973 810.771 108.027C816.78 111.766 820.53 114.253 822.211 118.157C825.63 126.11 820.524 138.922 815.087 147.903C807.421 125.738 780.488 120.884 756.699 116.585C749.724 115.322 738.953 113.389 733.379 111.274C737.181 106.603 747.197 99.6053 752.451 95.9407C759.186 91.2355 766.161 86.4045 771.46 81.1448C780.362 72.3119 783.781 62.9759 781.602 53.4169C777.629 35.9054 757.328 28.3531 745.579 25.4031C724.86 20.2176 695.091 20.5721 679.438 38.6782C669.479 50.1581 670.857 62.1698 671.943 71.8031C672.6 77.5373 673.269 83.466 672.017 90.7381C670.765 98.0217 667.895 104.722 663.956 110.925C661.726 98.925 658.359 86.0329 653.865 72.4091L621.592 73.3124C627.796 92.0245 633.421 117.203 634.816 130.478C635.422 136.321 632.798 142.021 628.018 145.451C625.034 147.595 622.136 149.636 619.351 151.568C612.365 156.422 606.311 160.635 601.903 164.757C588.382 177.329 592.778 188.609 595.277 192.868C604.132 207.83 628.03 208.882 643.5 199.838C657.038 191.937 664.848 176.409 666.82 155.084C667.626 154.352 668.455 153.621 669.262 152.866C669.805 152.368 670.354 151.86 670.885 151.339C682.565 140.231 693.113 127.127 698.71 111.857C704.244 96.8211 705.102 80.3273 702.918 64.5652C702.672 62.7472 702.421 60.7519 703.461 59.2655C703.941 58.5565 704.673 58.0649 705.405 57.6418C708.71 55.7094 712.551 54.8919 716.353 54.4745C727.153 53.2854 738.273 55.132 748.117 59.7228C740.502 66.2346 731.892 71.5115 723.894 77.543C723.757 77.6402 723.637 77.7317 723.511 77.8289C711.288 87.102 698.83 99.834 700.551 116.442C701.346 124.155 705.874 134.697 722.917 140.997C731.126 144.056 740.811 145.8 751.09 147.658C760.552 149.367 770.323 151.139 777.543 153.798C784.255 156.273 785.256 158.269 785.273 158.28C785.816 160.012 784.37 166.53 776.331 175.717C767.859 185.328 755.835 193.726 744.121 198.134C726.312 204.846 709.087 202.182 696.875 198.22C693.382 197.082 690.289 195.853 687.733 194.704C687.448 194.692 687.179 194.664 686.882 194.664C681.954 194.624 677.534 196.756 674.487 200.186L671.406 205.377C670.777 207.075 670.439 208.905 670.405 210.814C670.342 217.017 673.75 222.454 678.786 225.256C680.113 225.788 681.485 226.331 682.908 226.868C692.913 230.533 705.708 233.751 720.109 233.889C731.092 233.997 742.995 232.339 755.281 227.686C762.622 224.936 769.905 221.157 776.777 216.652C778.447 215.548 780.099 214.399 781.717 213.221C782.437 213.816 783.163 214.399 783.958 214.965C798.645 225.725 826.768 233.466 857.863 233.791C874.311 233.952 891.594 232.048 908.167 227.4C915.583 225.319 922.878 222.683 929.99 219.539C933.386 218.041 936.724 216.44 940.023 214.696C941.424 213.318 942.561 211.723 943.453 209.98C943.653 209.545 943.836 209.151 944.008 208.716C944.803 206.761 945.231 204.617 945.271 202.376C945.323 196.768 942.733 191.765 938.657 188.518L938.651 188.529ZM631.111 191.959C625.537 195.304 616.687 195.167 614.309 191.251C611.536 186.671 626.629 179.422 640.859 167.427C640.636 179.536 637.355 188.232 631.111 191.959Z" fill="white"/>
<path d="M897.236 56.8513C896.092 56.897 894.777 56.5311 893.657 56.251C894.834 56.5483 896.035 56.7026 897.236 56.8513Z" fill="white"/>
<path d="M902.509 22.5002C901.668 22.3745 900.799 22.243 899.907 22.1172C900.799 22.1801 901.668 22.3001 902.509 22.5002Z" fill="white"/>
<path d="M233.054 173.992H180.537L165.65 157.647L150.82 162.632L162.717 154.176L153.97 145.12V88.4926H232.454L232.774 58.1462L227.217 54.6302L233.049 52.8922L233.34 35.375L142.896 27.2109L85.1016 68.3626L85.3931 75.086L95.8954 76.5324L85.6733 79.7568L90.9502 185.106L146.395 234.673L240.938 231.769L233.049 173.992H233.054Z" fill="white"/>
<path d="M400.439 221.582L385.066 217.7L399.868 216.157L395.306 173.707L317.387 179.556L315.649 162.639L379.235 156.196V132.979L364.433 131.435L379.235 127.702V106.308L314.163 104.25V99.585L303.969 98.4187L313.871 94.6283L313.597 84.4347L391.515 88.2251L393.762 45.1753L378.509 43.6031L394.042 39.6926L394.711 27.2236L247.073 32.7807L247.364 46.5017L253.196 50.5723L247.364 53.1964L251.143 194.74L267.214 197.073L251.143 199.085L252.035 232.376L401.714 233.239L400.445 221.588L400.439 221.582Z" fill="white"/>
<path d="M75.7655 111.57L62.1017 115.012L75.7655 116.429V195.297L60.1464 199.207L75.7655 200.848V234.682H0.5V81.7495L15.8675 77.8676L0.5 76.2554V26.7109H75.7655V111.57Z" fill="white"/>
</g>
</svg>
