<svg width="52" height="33" viewBox="0 0 52 33" fill="none" xmlns="http://www.w3.org/2000/svg">
<path d="M50.6148 25.4552C50.2544 25.1647 49.809 24.974 49.3236 24.9174C49.277 24.9116 49.2353 24.9083 49.1904 24.9066C49.1471 24.9066 49.1021 24.9033 49.0605 24.9008H49.0047C48.7034 24.8991 48.4153 24.9474 48.1481 25.0415C47.984 25.1264 47.825 25.2021 47.6627 25.2796C46.7378 25.7067 45.7945 26.0588 44.8296 26.3294C42.024 27.1178 38.7863 27.2885 35.7176 26.8148C35.3296 26.7531 34.9616 26.6849 34.6194 26.6124C33.9634 26.4718 33.7628 25.6401 34.2764 25.2096C34.875 24.7051 35.4886 24.0824 36.0689 23.3123C36.4635 22.7895 37.7265 21.0079 38.3842 18.7567C38.4324 18.7492 38.4799 18.7367 38.5248 18.7259C39.5164 18.4845 40.5246 18.3021 41.5361 18.1831C42.4611 18.0732 43.3935 18.0157 44.3292 18.0083C44.9262 18.0049 45.4706 17.7718 45.8769 17.3913C46.2849 17.0109 46.5529 16.4806 46.5979 15.8895C46.7028 14.5408 45.6297 13.401 44.2768 13.4102C43.1804 13.4194 42.0839 13.486 40.995 13.6142C40.1616 13.7132 39.3307 13.8489 38.5065 14.0163C38.4324 13.7582 38.3367 13.5026 38.2251 13.2429C37.7922 12.228 37.1753 11.4737 36.5268 10.886C35.8816 10.2965 35.1997 9.87277 34.6228 9.51395C34.1882 9.24338 34.1141 8.64313 34.4696 8.27182C34.5653 8.17275 34.6503 8.08616 34.7152 8.02289C34.731 8.00624 34.7477 7.99042 34.766 7.97211C34.7693 7.97211 34.7735 7.96878 34.7751 7.96628C35.6193 7.3244 36.5384 6.81406 37.5142 6.44442C38.7405 5.97986 40.1183 5.93074 41.4146 5.96654C41.9832 5.98236 42.5493 6.03065 43.1146 6.09142C44.2785 6.21714 45.5372 6.52267 46.4955 5.63936C46.9567 5.21394 47.2664 4.62201 47.3247 3.99511C47.3322 3.91602 47.3355 3.8361 47.3355 3.75701C47.3355 2.40665 46.3906 1.62906 45.1576 1.29605C44.3109 1.06711 43.4093 1.03214 42.5368 0.988015C41.3463 0.928073 40.1508 0.953049 38.9661 1.09375C36.6891 1.36515 34.2523 2.07363 32.3924 3.46646C32.0045 3.75701 31.6257 4.08003 31.2652 4.43635C31.2386 4.46133 31.2111 4.4888 31.1844 4.51544C30.2845 5.42457 28.6094 7.1121 28.8242 9.54309C29.0332 11.8875 30.8148 12.9964 31.9928 13.7324C32.8678 14.2769 33.414 14.639 33.6587 15.2076C34.1566 16.3657 33.4131 18.2314 32.6214 19.5393C31.505 16.3116 27.5829 15.6047 24.1188 14.9787C23.1031 14.7947 21.5346 14.5133 20.7229 14.2053C21.2765 13.5251 22.7351 12.5061 23.5002 11.9724C24.4809 11.2872 25.4966 10.5838 26.2683 9.81783C27.5646 8.53157 28.0624 7.17205 27.7453 5.78006C27.1666 3.23002 24.2103 2.13025 22.4995 1.70066C19.4824 0.945556 15.1474 0.997173 12.868 3.63379C11.4177 5.30551 11.6183 7.05466 11.7765 8.45747C11.8722 9.2925 11.9696 10.1558 11.7873 11.2148C11.605 12.2755 11.1871 13.2512 10.6135 14.1545C10.2888 12.407 9.79841 10.5296 9.14404 8.54572L4.44441 8.67726C5.34771 11.4021 6.16692 15.0686 6.37005 17.0017C6.4583 17.8526 6.07617 18.6826 5.38017 19.1821C4.94559 19.4943 4.5235 19.7915 4.11806 20.0729C3.1007 20.7797 2.21905 21.3933 1.57717 21.9936C-0.39176 23.8243 0.248459 25.4669 0.612274 26.0871C1.90186 28.2659 5.38184 28.419 7.63466 27.102C9.60609 25.9514 10.7433 23.6903 11.0306 20.5849C11.1479 20.4784 11.2687 20.3718 11.386 20.2619C11.4651 20.1895 11.5451 20.1154 11.6225 20.0396C13.3233 18.422 14.8594 16.5139 15.6744 14.2902C16.4803 12.1006 16.6052 9.69877 16.2871 7.40349C16.2513 7.13874 16.2147 6.84819 16.3662 6.63173C16.4362 6.5285 16.5427 6.4569 16.6493 6.3953C17.1305 6.1139 17.69 5.99485 18.2436 5.93407C19.8162 5.76091 21.4355 6.02982 22.8691 6.69834C21.7602 7.64659 20.5064 8.41501 19.3417 9.29333C19.3217 9.30749 19.3042 9.32081 19.2859 9.33496C17.506 10.6853 15.6919 12.5394 15.9425 14.9579C16.0582 16.0809 16.7176 17.6161 19.1993 18.5336C20.3948 18.979 21.8052 19.2329 23.302 19.5035C24.6799 19.7524 26.1027 20.0105 27.1542 20.3976C28.1316 20.7581 28.2772 21.0487 28.2797 21.0503C28.3588 21.3026 28.1482 22.2517 26.9777 23.5895C25.7439 24.989 23.993 26.212 22.2872 26.8539C19.6939 27.8313 17.1855 27.4433 15.4072 26.8664C14.8985 26.7007 14.4481 26.5217 14.0759 26.3544C14.0343 26.3527 13.9952 26.3485 13.9519 26.3485C13.2343 26.3427 12.5907 26.6532 12.147 27.1528L11.6982 27.9087C11.6067 28.156 11.5575 28.4224 11.5526 28.7004C11.5434 29.6037 12.0396 30.3955 12.773 30.8034C12.9662 30.8808 13.166 30.9599 13.3733 31.0382C14.8302 31.5718 16.6934 32.0405 18.7906 32.0605C20.3898 32.0763 22.1232 31.8349 23.9123 31.1572C24.9813 30.7568 26.0419 30.2065 27.0426 29.5504C27.2857 29.3898 27.5263 29.2224 27.7619 29.0509C27.8668 29.1375 27.9725 29.2224 28.0883 29.3048C30.227 30.8717 34.3222 31.9989 38.8504 32.0464C41.2456 32.0697 43.7623 31.7924 46.1758 31.1156C47.2556 30.8126 48.3179 30.4288 49.3536 29.9709C49.8481 29.7528 50.3343 29.5196 50.8147 29.2657C51.0186 29.0651 51.1843 28.8328 51.3142 28.5789C51.3433 28.5156 51.37 28.4582 51.3949 28.3949C51.5106 28.1102 51.5731 27.798 51.5789 27.4716C51.5864 26.6549 51.2093 25.9264 50.6157 25.4536L50.6148 25.4552ZM5.83058 25.9548C5.01886 26.4418 3.7301 26.4218 3.38377 25.8515C2.97999 25.1847 5.17787 24.129 7.25003 22.3824C7.21756 24.1457 6.7397 25.4119 5.83058 25.9548Z" fill="white"/>
</svg>
