<svg width="80" height="80" viewBox="0 0 80 80" fill="none" xmlns="http://www.w3.org/2000/svg">
<rect width="80" height="80" rx="40" fill="white"/>
<path d="M52 44.4999V35.4999C52 35.102 52.158 34.7205 52.4393 34.4392C52.7206 34.1579 53.1022 33.9999 53.5 33.9999C53.8978 33.9999 54.2794 34.1579 54.5607 34.4392C54.842 34.7205 55 35.102 55 35.4999V44.4999C55 44.8977 54.842 45.2792 54.5607 45.5605C54.2794 45.8418 53.8978 45.9998 53.5 45.9998C53.1022 45.9998 52.7206 45.8418 52.4393 45.5605C52.158 45.2792 52 44.8977 52 44.4999ZM59.5 30.9999C59.1022 30.9999 58.7206 31.1579 58.4393 31.4392C58.158 31.7205 58 32.102 58 32.4999V47.4998C58 47.8977 58.158 48.2792 58.4393 48.5605C58.7206 48.8418 59.1022 48.9998 59.5 48.9998C59.8978 48.9998 60.2794 48.8418 60.5607 48.5605C60.842 48.2792 61 47.8977 61 47.4998V32.4999C61 32.102 60.842 31.7205 60.5607 31.4392C60.2794 31.1579 59.8978 30.9999 59.5 30.9999ZM57.61 55.4911C57.7453 55.6364 57.8503 55.8071 57.9191 55.9933C57.9879 56.1795 58.0191 56.3775 58.0108 56.5758C58.0025 56.7741 57.9549 56.9688 57.8708 57.1486C57.7868 57.3284 57.6678 57.4897 57.5209 57.6232C57.374 57.7567 57.2021 57.8598 57.0151 57.9263C56.8281 57.9929 56.6297 58.0217 56.4315 58.011C56.2333 58.0003 56.0392 57.9504 55.8604 57.8642C55.6816 57.778 55.5217 57.6571 55.39 57.5086L47.5 48.8292V57.9998C47.4998 58.2805 47.4208 58.5555 47.2721 58.7935C47.1234 59.0316 46.9109 59.2231 46.6587 59.3464C46.4065 59.4696 46.1248 59.5196 45.8456 59.4908C45.5665 59.4619 45.301 59.3552 45.0794 59.183L31.9844 48.9998H23.5C22.7044 48.9998 21.9413 48.6838 21.3787 48.1212C20.8161 47.5586 20.5 46.7955 20.5 45.9998V33.9999C20.5 33.2042 20.8161 32.4411 21.3787 31.8785C21.9413 31.3159 22.7044 30.9999 23.5 30.9999H31.2906L25.39 24.5086C25.1281 24.2133 24.9931 23.8267 25.0143 23.4326C25.0355 23.0384 25.2112 22.6685 25.5033 22.4031C25.7954 22.1376 26.1803 21.998 26.5747 22.0145C26.9691 22.0309 27.3411 22.2022 27.61 22.4911L57.61 55.4911ZM44.5 45.5292L34.0187 33.9999H23.5V45.9998H32.5C32.8337 45.9993 33.1579 46.1109 33.4206 46.3167L44.5 54.9324V45.5292ZM39.4487 28.9955L44.5 25.058V36.0211C44.5 36.4189 44.658 36.8005 44.9393 37.0818C45.2206 37.3631 45.6022 37.5211 46 37.5211C46.3978 37.5211 46.7794 37.3631 47.0607 37.0818C47.342 36.8005 47.5 36.4189 47.5 36.0211V21.9999C47.4998 21.7192 47.4208 21.4442 47.2721 21.2062C47.1234 20.9681 46.9109 20.7766 46.6587 20.6533C46.4065 20.5301 46.1248 20.4801 45.8456 20.5089C45.5665 20.5378 45.301 20.6445 45.0794 20.8167L37.6075 26.6292C37.2998 26.8755 37.1013 27.2331 37.0551 27.6245C37.0089 28.016 37.1187 28.4099 37.3606 28.721C37.6026 29.0322 37.9573 29.2357 38.348 29.2874C38.7388 29.3391 39.1342 29.2349 39.4487 28.9974V28.9955Z" fill="black"/>
</svg>
