<svg width="117" height="33" viewBox="0 0 117 33" fill="none" xmlns="http://www.w3.org/2000/svg">
<g clip-path="url(#clip0_252_170)">
<path d="M0.682949 15.9321C0.682199 18.6418 1.3902 21.2875 2.73645 23.6195L0.554199 31.5873L8.7082 29.4493C10.9635 30.677 13.4904 31.3203 16.0582 31.3205H16.0649C24.5418 31.3205 31.4422 24.4226 31.4458 15.9443C31.4474 11.8359 29.8489 7.97264 26.9447 5.06614C24.0409 2.15989 20.1791 0.558516 16.0643 0.556641C7.58645 0.556641 0.686574 7.45414 0.683074 15.9321" fill="url(#paint0_linear_252_170)"/>
<path d="M0.13375 15.927C0.132875 18.7341 0.86625 21.4745 2.2605 23.89L0 32.1434L8.44637 29.9287C10.7736 31.1976 13.3939 31.8666 16.0601 31.8676H16.067C24.848 31.8676 31.9963 24.7216 32 15.9397C32.0015 11.6838 30.3455 7.68162 27.3375 4.671C24.3291 1.66075 20.3291 0.00175 16.067 0C7.2845 0 0.13725 7.145 0.13375 15.927ZM5.16388 23.474L4.8485 22.9734C3.52275 20.8654 2.823 18.4294 2.824 15.928C2.82675 8.62863 8.76725 2.69 16.072 2.69C19.6095 2.6915 22.934 4.0705 25.4345 6.5725C27.9349 9.07475 29.3108 12.401 29.3099 15.9388C29.3066 23.2381 23.366 29.1775 16.067 29.1775H16.0618C13.6851 29.1763 11.3542 28.538 9.3215 27.3319L8.83775 27.045L3.8255 28.3591L5.16388 23.474Z" fill="url(#paint1_linear_252_170)"/>
<path d="M12.0845 9.26843C11.7862 8.60555 11.4723 8.59218 11.1887 8.58055C10.9565 8.57055 10.691 8.5713 10.4257 8.5713C10.1602 8.5713 9.72883 8.67118 9.3642 9.0693C8.9992 9.4678 7.9707 10.4308 7.9707 12.3894C7.9707 14.3481 9.39733 16.2411 9.5962 16.5069C9.79533 16.7723 12.3503 20.9203 16.3968 22.5161C19.7598 23.8422 20.4442 23.5784 21.1741 23.5119C21.9041 23.4457 23.5296 22.5492 23.8612 21.6196C24.1931 20.6901 24.1931 19.8933 24.0936 19.7268C23.9941 19.5609 23.7286 19.4613 23.3305 19.2623C22.9323 19.0633 20.975 18.1001 20.6101 17.9672C20.2451 17.8344 19.9797 17.7682 19.7142 18.1668C19.4487 18.5648 18.6863 19.4613 18.454 19.7268C18.2218 19.9929 17.9895 20.0261 17.5915 19.8269C17.1931 19.6272 15.911 19.2073 14.3898 17.8512C13.2063 16.7959 12.4073 15.4928 12.1751 15.0942C11.9428 14.6962 12.1502 14.4804 12.3498 14.2821C12.5287 14.1037 12.7481 13.8172 12.9473 13.5848C13.1458 13.3523 13.2121 13.1864 13.3448 12.9209C13.4777 12.6552 13.4112 12.4227 13.3118 12.2236C13.2121 12.0244 12.4385 10.0556 12.0845 9.26843Z" fill="white"/>
</g>
<path d="M52.008 21.625L49.656 13.593L49.416 12.713L49.16 13.593L46.808 21.625H45.064L41.608 10.745H43.176L45.752 19.257L45.976 20.073L46.184 19.257L48.664 10.745H50.248L52.712 19.257L52.92 20.073L53.128 19.257L55.688 10.745H57.192L53.736 21.625H52.008ZM58.9169 21.625V10.105H60.3249V14.281C60.9009 13.385 61.8289 12.921 62.9489 12.921C64.7569 12.921 65.8289 13.977 65.8289 15.945V21.625H64.4209V16.233C64.4209 14.953 63.8449 14.121 62.5649 14.121C61.1569 14.121 60.3249 15.385 60.3249 16.601V21.625H58.9169ZM69.3691 15.897H67.9611C68.2331 14.025 69.4651 12.921 71.5451 12.921C73.8171 12.921 74.9211 14.249 74.9211 16.233V19.577C74.9211 20.553 75.0011 21.161 75.2251 21.625H73.7371C73.5771 21.289 73.5291 20.793 73.5131 20.281C72.7931 21.353 71.6411 21.817 70.6171 21.817C68.8571 21.817 67.6731 21.001 67.6731 19.385C67.6731 18.217 68.3131 17.369 69.5611 16.953C70.7131 16.569 71.8811 16.473 73.5131 16.457V16.265C73.5131 14.889 72.8731 14.137 71.4171 14.137C70.2011 14.137 69.5451 14.809 69.3691 15.897ZM69.1131 19.353C69.1131 20.137 69.7691 20.601 70.7611 20.601C72.3291 20.601 73.5131 19.369 73.5131 17.913V17.513C69.8971 17.545 69.1131 18.313 69.1131 19.353ZM77.4214 19.177V14.249H76.2374V13.129H77.4214V11.177H78.8294V13.129H80.7014V14.249H78.8294V19.177C78.8294 20.201 79.1334 20.681 80.3814 20.681H80.6694V21.689C80.5094 21.769 80.1574 21.817 79.7574 21.817C78.1734 21.817 77.4214 20.969 77.4214 19.177ZM83.0819 15.305C83.0819 17.673 88.6019 15.721 88.6019 19.225C88.6019 20.809 87.1939 21.817 85.1939 21.817C83.1779 21.817 81.7699 20.857 81.4499 18.857H82.8579C83.0499 20.041 83.9299 20.697 85.2419 20.697C86.5219 20.697 87.1939 20.121 87.1939 19.321C87.1939 17.001 81.7379 18.921 81.7379 15.401C81.7379 14.105 82.7459 12.921 84.8259 12.921C86.6659 12.921 88.0259 13.785 88.2979 15.897H86.8899C86.6819 14.569 85.9459 14.073 84.7459 14.073C83.6899 14.073 83.0819 14.601 83.0819 15.305ZM91.5723 15.897H90.1643C90.4363 14.025 91.6683 12.921 93.7483 12.921C96.0203 12.921 97.1243 14.249 97.1243 16.233V19.577C97.1243 20.553 97.2043 21.161 97.4283 21.625H95.9403C95.7803 21.289 95.7323 20.793 95.7163 20.281C94.9963 21.353 93.8443 21.817 92.8203 21.817C91.0603 21.817 89.8763 21.001 89.8763 19.385C89.8763 18.217 90.5163 17.369 91.7643 16.953C92.9163 16.569 94.0843 16.473 95.7163 16.457V16.265C95.7163 14.889 95.0763 14.137 93.6203 14.137C92.4043 14.137 91.7483 14.809 91.5723 15.897ZM91.3163 19.353C91.3163 20.137 91.9723 20.601 92.9643 20.601C94.5323 20.601 95.7163 19.369 95.7163 17.913V17.513C92.1003 17.545 91.3163 18.313 91.3163 19.353ZM100.857 25.145H99.4485V13.129H100.857V14.185C101.417 13.385 102.233 12.921 103.241 12.921C105.497 12.921 106.857 14.585 106.857 17.353C106.857 20.233 105.465 21.817 103.241 21.817C102.233 21.817 101.417 21.401 100.857 20.617V25.145ZM103.145 14.137C101.657 14.137 100.857 15.273 100.857 17.353C100.857 19.417 101.689 20.601 103.145 20.601C104.617 20.601 105.417 19.449 105.417 17.353C105.417 15.305 104.585 14.137 103.145 14.137ZM110.091 25.145H108.683V13.129H110.091V14.185C110.651 13.385 111.467 12.921 112.475 12.921C114.731 12.921 116.091 14.585 116.091 17.353C116.091 20.233 114.699 21.817 112.475 21.817C111.467 21.817 110.651 21.401 110.091 20.617V25.145ZM112.379 14.137C110.891 14.137 110.091 15.273 110.091 17.353C110.091 19.417 110.923 20.601 112.379 20.601C113.851 20.601 114.651 19.449 114.651 17.353C114.651 15.305 113.819 14.137 112.379 14.137Z" fill="black"/>
<defs>
<linearGradient id="paint0_linear_252_170" x1="1545.14" y1="3103.62" x2="1545.14" y2="0.556641" gradientUnits="userSpaceOnUse">
<stop stop-color="#1FAF38"/>
<stop offset="1" stop-color="#60D669"/>
</linearGradient>
<linearGradient id="paint1_linear_252_170" x1="1600" y1="3214.34" x2="1600" y2="0" gradientUnits="userSpaceOnUse">
<stop stop-color="#F9F9F9"/>
<stop offset="1" stop-color="white"/>
</linearGradient>
<clipPath id="clip0_252_170">
<rect width="32" height="32.25" fill="white"/>
</clipPath>
</defs>
</svg>
